<svg version="1.1" xmlns="http://www.w3.org/2000/svg" viewBox="0 0 846.4375 515.0527340625" width="1692.875" height="1030.105468125">
  <!-- svg-source:excalidraw -->
  
  <defs>
    <style class="style-fonts">
      @font-face {
        font-family: "Virgil";
        src: url("https://excalidraw.com/Virgil.woff2");
      }
      @font-face {
        font-family: "Cascadia";
        src: url("https://excalidraw.com/Cascadia.woff2");
      }
      @font-face {
        font-family: "Assistant";
        src: url("https://excalidraw.com/Assistant-Regular.woff2");
      }
    </style>
    
  </defs>
  <rect x="0" y="0" width="846.4375" height="515.0527340625" fill="#ffffff"></rect><g stroke-linecap="round" transform="translate(48.89062475000003 51.263672499999984) rotate(0 85.216796875 62.259765625)"><path d="M31.13 0 C56.83 0.56, 79.92 -0.44, 139.3 0 M31.13 0 C61 -1.26, 91.13 -0.14, 139.3 0 M139.3 0 C159.24 -0.45, 170.44 9.9, 170.43 31.13 M139.3 0 C162.16 1.5, 170.45 9.54, 170.43 31.13 M170.43 31.13 C171.71 47.32, 172.15 60.12, 170.43 93.39 M170.43 31.13 C171.5 47.94, 170.49 63.05, 170.43 93.39 M170.43 93.39 C172.09 115.72, 161.01 124.19, 139.3 124.52 M170.43 93.39 C169.8 112.04, 159.69 125.66, 139.3 124.52 M139.3 124.52 C111.47 121.82, 86.36 122.58, 31.13 124.52 M139.3 124.52 C101.59 123.35, 63.5 124.07, 31.13 124.52 M31.13 124.52 C8.6 124.62, -0.37 116.05, 0 93.39 M31.13 124.52 C11.43 123.51, 0.56 113.6, 0 93.39 M0 93.39 C-0.11 75.81, -1.2 58.4, 0 31.13 M0 93.39 C0.74 80.11, -0.78 65.21, 0 31.13 M0 31.13 C-1.28 11.94, 11.35 -1.47, 31.13 0 M0 31.13 C-0.22 12.45, 10.61 -0.78, 31.13 0" stroke="#1e1e1e" stroke-width="2" fill="none"></path></g><g stroke-linecap="round" transform="translate(348.36639575000004 120.60937524999997) rotate(0 79.05078125 62.70703125)"><path d="M31.35 0 C54.18 -1.43, 78.54 -0.55, 126.75 0 M31.35 0 C62.49 0.98, 95.97 -0.18, 126.75 0 M126.75 0 C147.49 0.58, 158.89 10.6, 158.1 31.35 M126.75 0 C147.73 -2.14, 156.96 9.62, 158.1 31.35 M158.1 31.35 C157.3 55.64, 158.81 80.94, 158.1 94.06 M158.1 31.35 C157.54 54.49, 158.93 79.08, 158.1 94.06 M158.1 94.06 C157.32 115.48, 147.39 126.29, 126.75 125.41 M158.1 94.06 C156.66 114.17, 148.73 126.54, 126.75 125.41 M126.75 125.41 C104.27 126.13, 81.33 126.62, 31.35 125.41 M126.75 125.41 C92.41 124.96, 57.99 125.36, 31.35 125.41 M31.35 125.41 C10.79 124.01, 0.95 115.17, 0 94.06 M31.35 125.41 C8.81 125.15, 1.8 114.48, 0 94.06 M0 94.06 C0.53 73.37, -1.4 51.03, 0 31.35 M0 94.06 C0.45 72.97, 0.62 50.39, 0 31.35 M0 31.35 C-1.47 12.38, 11.4 -0.41, 31.35 0 M0 31.35 C-1.49 11.45, 8.31 -0.13, 31.35 0" stroke="#1e1e1e" stroke-width="2" fill="none"></path></g><g transform="translate(371.70723895068363 158.31640649999997) rotate(0 55.709938049316406 25)"><text x="55.709938049316406" y="17.52" font-family="Virgil, Segoe UI Emoji" font-size="20px" fill="#1e1e1e" text-anchor="middle" style="white-space: pre;" direction="ltr" dominant-baseline="alphabetic">Persistence</text><text x="55.709938049316406" y="42.519999999999996" font-family="Virgil, Segoe UI Emoji" font-size="20px" fill="#1e1e1e" text-anchor="middle" style="white-space: pre;" direction="ltr" dominant-baseline="alphabetic">Proxy</text></g><g stroke-linecap="round"><g transform="translate(221.78906225000003 124.44399170643567) rotate(0 62.788666750000004 14.214895255213008)"><path d="M1.11 0.47 C22.01 5.28, 104.85 24.64, 125.5 29.29 M0.23 -0.33 C20.96 4.12, 103.89 22.62, 124.51 27.62" stroke="#1e1e1e" stroke-width="2" fill="none"></path></g><g transform="translate(221.78906225000003 124.44399170643567) rotate(0 62.788666750000004 14.214895255213008)"><path d="M99.69 30.66 C108.09 29.36, 116.37 27.58, 124.51 27.62 M99.69 30.66 C107.65 29.1, 115.13 29.12, 124.51 27.62" stroke="#1e1e1e" stroke-width="2" fill="none"></path></g><g transform="translate(221.78906225000003 124.44399170643567) rotate(0 62.788666750000004 14.214895255213008)"><path d="M103.55 14 C110.81 17.86, 117.91 21.19, 124.51 27.62 M103.55 14 C110.34 17.4, 116.67 22.4, 124.51 27.62" stroke="#1e1e1e" stroke-width="2" fill="none"></path></g></g><mask></mask><g transform="translate(77.84751892089844 103.7421875) rotate(0 58.479957580566406 12.5)"><text x="58.479957580566406" y="17.52" font-family="Virgil, Segoe UI Emoji" font-size="20px" fill="#1e1e1e" text-anchor="middle" style="white-space: pre;" direction="ltr" dominant-baseline="alphabetic">Form Runner</text></g><g stroke-linecap="round" transform="translate(47.951171875 199.154296875) rotate(0 85.216796875 62.259765625)"><path d="M31.13 0 C55.61 0.16, 83.87 2.05, 139.3 0 M31.13 0 C60.16 -0.69, 87.9 0.38, 139.3 0 M139.3 0 C159.28 1.52, 169.05 9, 170.43 31.13 M139.3 0 C161.51 -1.39, 171.63 9.34, 170.43 31.13 M170.43 31.13 C169.85 54.9, 171.72 76.48, 170.43 93.39 M170.43 31.13 C170.5 46.56, 170.78 61.57, 170.43 93.39 M170.43 93.39 C172.16 114.42, 159.43 124.35, 139.3 124.52 M170.43 93.39 C170.96 116.14, 161.32 126.2, 139.3 124.52 M139.3 124.52 C107.19 123.57, 77.06 125.68, 31.13 124.52 M139.3 124.52 C98.61 124.14, 58.6 123.93, 31.13 124.52 M31.13 124.52 C8.96 123.41, -1.16 115.33, 0 93.39 M31.13 124.52 C10.92 122.51, -2.22 113.81, 0 93.39 M0 93.39 C0.92 71.95, 0.96 45.48, 0 31.13 M0 93.39 C-0.52 71.59, -0.55 50.29, 0 31.13 M0 31.13 C-1.11 12.02, 9.41 1.69, 31.13 0 M0 31.13 C-1.15 9.58, 10.46 -2.29, 31.13 0" stroke="#1e1e1e" stroke-width="2" fill="none"></path></g><g transform="translate(71.86005401611328 252.71875) rotate(0 60.13994598388672 12.5)"><text x="60.13994598388672" y="17.52" font-family="Virgil, Segoe UI Emoji" font-size="20px" fill="#1e1e1e" text-anchor="middle" style="white-space: pre;" direction="ltr" dominant-baseline="alphabetic">Form Builder</text></g><g stroke-linecap="round"><g transform="translate(220.46079332643842 250.12946569956176) rotate(0 62.90592621178081 -22.139256379051716)"><path d="M-0.12 0.31 C20.49 -7.03, 103.69 -37.7, 124.7 -45.19 M-1.64 -0.57 C19.23 -7.69, 105.68 -36.97, 126.82 -44.13" stroke="#1e1e1e" stroke-width="2" fill="none"></path></g><g transform="translate(220.46079332643842 250.12946569956176) rotate(0 62.90592621178081 -22.139256379051716)"><path d="M107.31 -28.49 C115.49 -36.36, 120.98 -40.36, 126.82 -44.13 M107.31 -28.49 C111.92 -33.17, 117.28 -36.21, 126.82 -44.13" stroke="#1e1e1e" stroke-width="2" fill="none"></path></g><g transform="translate(220.46079332643842 250.12946569956176) rotate(0 62.90592621178081 -22.139256379051716)"><path d="M101.83 -44.69 C111.97 -46.31, 119.57 -44.07, 126.82 -44.13 M101.83 -44.69 C108.02 -44.99, 114.87 -43.64, 126.82 -44.13" stroke="#1e1e1e" stroke-width="2" fill="none"></path></g></g><mask></mask><g stroke-linecap="round" transform="translate(48.583984375 380.017578125) rotate(0 85.216796875 62.259765625)"><path d="M31.13 0 C65.5 -0.08, 97.92 -2.17, 139.3 0 M31.13 0 C63.85 -1.07, 96.28 -0.78, 139.3 0 M139.3 0 C158.4 1.91, 170.46 8.65, 170.43 31.13 M139.3 0 C161.95 -1.9, 168.84 11.34, 170.43 31.13 M170.43 31.13 C171.03 48.58, 169.55 64.51, 170.43 93.39 M170.43 31.13 C170.67 45.59, 169.15 61.1, 170.43 93.39 M170.43 93.39 C170.21 112.83, 159.38 123.08, 139.3 124.52 M170.43 93.39 C169.14 114.47, 159.18 122.85, 139.3 124.52 M139.3 124.52 C97.85 123.93, 56.36 126.85, 31.13 124.52 M139.3 124.52 C114.71 124.48, 89.15 123.32, 31.13 124.52 M31.13 124.52 C10.96 124.01, -0.11 115.03, 0 93.39 M31.13 124.52 C11.97 123.69, -1.1 115.94, 0 93.39 M0 93.39 C2.13 77.85, 1.09 65.86, 0 31.13 M0 93.39 C0.47 81.44, 0.79 68.01, 0 31.13 M0 31.13 C1.57 8.69, 10.6 -0.08, 31.13 0 M0 31.13 C-1.55 11.98, 10.06 -2.18, 31.13 0" stroke="#1e1e1e" stroke-width="2" fill="none"></path></g><g transform="translate(77.10504150390625 423.22265625) rotate(0 55.76995849609375 25)"><text x="55.76995849609375" y="17.52" font-family="Virgil, Segoe UI Emoji" font-size="20px" fill="#1e1e1e" text-anchor="middle" style="white-space: pre;" direction="ltr" dominant-baseline="alphabetic">External</text><text x="55.76995849609375" y="42.519999999999996" font-family="Virgil, Segoe UI Emoji" font-size="20px" fill="#1e1e1e" text-anchor="middle" style="white-space: pre;" direction="ltr" dominant-baseline="alphabetic">API callers</text></g><g stroke-linecap="round"><g transform="translate(220.259765625 433.1446251806599) rotate(0 73.5284963374998 -93.06059371532996)"><path d="M-0.75 -1.12 C23.61 -32.49, 122.41 -156.11, 147.03 -187.13 M1.05 0.9 C25.18 -29.83, 121.89 -154.89, 146.07 -186.12" stroke="#1e1e1e" stroke-width="2" fill="none"></path></g><g transform="translate(220.259765625 433.1446251806599) rotate(0 73.5284963374998 -93.06059371532996)"><path d="M138.46 -162.31 C139.19 -171.11, 142.19 -180.05, 146.07 -186.12 M138.46 -162.31 C139.36 -166.81, 140.96 -171.43, 146.07 -186.12" stroke="#1e1e1e" stroke-width="2" fill="none"></path></g><g transform="translate(220.259765625 433.1446251806599) rotate(0 73.5284963374998 -93.06059371532996)"><path d="M124.93 -172.78 C130.75 -177.62, 138.76 -182.69, 146.07 -186.12 M124.93 -172.78 C128.71 -175.03, 133.1 -177.49, 146.07 -186.12" stroke="#1e1e1e" stroke-width="2" fill="none"></path></g></g><mask></mask><g transform="translate(235.00174713134766 163.2734375) rotate(0 39.509971618652344 25)"><text x="39.509971618652344" y="17.52" font-family="Virgil, Segoe UI Emoji" font-size="20px" fill="#1e1e1e" text-anchor="middle" style="white-space: pre;" direction="ltr" dominant-baseline="alphabetic">Internal</text><text x="39.509971618652344" y="42.519999999999996" font-family="Virgil, Segoe UI Emoji" font-size="20px" fill="#1e1e1e" text-anchor="middle" style="white-space: pre;" direction="ltr" dominant-baseline="alphabetic">calls</text></g><g transform="translate(277.9836196899414 370.93359375) rotate(0 28.199974060058594 12.5)"><text x="28.199974060058594" y="17.52" font-family="Virgil, Segoe UI Emoji" font-size="20px" fill="#1e1e1e" text-anchor="middle" style="white-space: pre;" direction="ltr" dominant-baseline="alphabetic">HTTP</text></g><g stroke-linecap="round" transform="translate(10 10) rotate(0 413.21875 168.466796875)"><path d="M32 0 C208.2 0.21, 384.84 0.7, 794.44 0 M32 0 C324.91 0.6, 617.65 0.48, 794.44 0 M794.44 0 C814.3 -0.6, 826.42 9.86, 826.44 32 M794.44 0 C814.74 0.01, 826.06 12.65, 826.44 32 M826.44 32 C829.86 136.74, 827.96 242.6, 826.44 304.93 M826.44 32 C826.01 111.33, 825.81 190.85, 826.44 304.93 M826.44 304.93 C824.71 326.58, 814.44 335.91, 794.44 336.93 M826.44 304.93 C825.94 325.75, 814.02 337.88, 794.44 336.93 M794.44 336.93 C494.82 336.66, 196.5 336.06, 32 336.93 M794.44 336.93 C611.83 336.71, 429.47 336.81, 32 336.93 M32 336.93 C9.44 337.63, 0.03 326, 0 304.93 M32 336.93 C11.66 337.16, 0.88 325.74, 0 304.93 M0 304.93 C0.15 211.04, -0.34 115.55, 0 32 M0 304.93 C-0.43 246.24, -0.5 188.6, 0 32 M0 32 C-0.33 11.24, 10.78 0.68, 32 0 M0 32 C-2.07 12.55, 10.27 -0.84, 32 0" stroke="#1e1e1e" stroke-width="2" fill="none"></path></g><g transform="translate(14.257286071777344 20.95703125) rotate(0 409.37747955322266 17.5)"><text x="409.3774795532226" y="24.528" font-family="Virgil, Segoe UI Emoji" font-size="28px" fill="#1e1e1e" text-anchor="middle" style="white-space: pre;" direction="ltr" dominant-baseline="alphabetic">Orbeon Forms</text></g><g stroke-linecap="round" transform="translate(629.6982420625 117.89257843749999) rotate(0 85.216796875 62.259765625)"><path d="M31.13 0 C61.92 -0.92, 96.04 -1.12, 139.3 0 M31.13 0 C60.25 -0.47, 91.54 -0.38, 139.3 0 M139.3 0 C160.53 -0.24, 169.42 9.99, 170.43 31.13 M139.3 0 C162.24 1.88, 168.79 9.7, 170.43 31.13 M170.43 31.13 C169.26 49.54, 170.42 69.16, 170.43 93.39 M170.43 31.13 C170.13 47.83, 170.1 62.02, 170.43 93.39 M170.43 93.39 C171.97 112.39, 159.41 122.76, 139.3 124.52 M170.43 93.39 C170.72 115.53, 159.86 123.49, 139.3 124.52 M139.3 124.52 C104.75 125.02, 73.36 125.65, 31.13 124.52 M139.3 124.52 C102.98 124.37, 65.61 124.13, 31.13 124.52 M31.13 124.52 C12.35 126.34, -1.06 112.91, 0 93.39 M31.13 124.52 C9.72 125.21, 1.75 115.79, 0 93.39 M0 93.39 C0.39 78.8, -1.37 67.45, 0 31.13 M0 93.39 C-0.4 74.15, 0.56 54.86, 0 31.13 M0 31.13 C1.37 10.64, 8.65 1.67, 31.13 0 M0 31.13 C-0.42 10.67, 8.37 0.04, 31.13 0" stroke="#1e1e1e" stroke-width="2" fill="none"></path></g><g transform="translate(652.8843613920899 142.8828121875) rotate(0 65.449951171875 37.5)"><text x="65.449951171875" y="17.52" font-family="Virgil, Segoe UI Emoji" font-size="20px" fill="#1e1e1e" text-anchor="middle" style="white-space: pre;" direction="ltr" dominant-baseline="alphabetic">Relational</text><text x="65.449951171875" y="42.519999999999996" font-family="Virgil, Segoe UI Emoji" font-size="20px" fill="#1e1e1e" text-anchor="middle" style="white-space: pre;" direction="ltr" dominant-baseline="alphabetic">Providers</text><text x="65.449951171875" y="67.52" font-family="Virgil, Segoe UI Emoji" font-size="20px" fill="#1e1e1e" text-anchor="middle" style="white-space: pre;" direction="ltr" dominant-baseline="alphabetic">(MySQL, etc.)</text></g><g stroke-linecap="round" transform="translate(631.1064454375 380.5332028125) rotate(0 85.216796875 62.259765625)"><path d="M31.13 0 C62.75 -0.33, 95 -1.82, 139.3 0 M31.13 0 C57.31 0.44, 82.52 0.36, 139.3 0 M139.3 0 C161.95 1.63, 169 9.79, 170.43 31.13 M139.3 0 C160.12 -1.49, 171.97 9.49, 170.43 31.13 M170.43 31.13 C169.6 48.32, 169.8 65.19, 170.43 93.39 M170.43 31.13 C171.02 55.08, 169.92 79.9, 170.43 93.39 M170.43 93.39 C170.68 115.35, 159.89 123.63, 139.3 124.52 M170.43 93.39 C170.57 113.4, 159.86 122.87, 139.3 124.52 M139.3 124.52 C104.43 125.14, 66.72 125.91, 31.13 124.52 M139.3 124.52 C102.09 125.74, 62.38 124.22, 31.13 124.52 M31.13 124.52 C9.81 125.12, 1.52 115.57, 0 93.39 M31.13 124.52 C8.62 122.3, 1.09 113.9, 0 93.39 M0 93.39 C0.82 77.92, 0.01 60.13, 0 31.13 M0 93.39 C0.12 74.34, -1.42 55.85, 0 31.13 M0 31.13 C-0.36 10.63, 8.64 0.03, 31.13 0 M0 31.13 C-1.31 9.2, 10.8 -1.46, 31.13 0" stroke="#1e1e1e" stroke-width="2" fill="none"></path></g><g transform="translate(662.3750230131836 406.5195309375) rotate(0 55.709938049316406 37.5)"><text x="55.709938049316406" y="17.52" font-family="Virgil, Segoe UI Emoji" font-size="20px" fill="#1e1e1e" text-anchor="middle" style="white-space: pre;" direction="ltr" dominant-baseline="alphabetic">Custom</text><text x="55.709938049316406" y="42.519999999999996" font-family="Virgil, Segoe UI Emoji" font-size="20px" fill="#1e1e1e" text-anchor="middle" style="white-space: pre;" direction="ltr" dominant-baseline="alphabetic">Persistence</text><text x="55.709938049316406" y="67.52" font-family="Virgil, Segoe UI Emoji" font-size="20px" fill="#1e1e1e" text-anchor="middle" style="white-space: pre;" direction="ltr" dominant-baseline="alphabetic">Provider</text></g><g stroke-linecap="round"><g transform="translate(508.9178245764381 186.2980595613871) rotate(0 58.89088375283529 0.023776525216050004)"><path d="M-0.89 -0.93 C18.67 -0.68, 98.05 0.31, 117.71 0.62 M0.85 1.19 C20.21 1.17, 97.54 -0.85, 116.73 -1.2" stroke="#1e1e1e" stroke-width="2" fill="none"></path></g><g transform="translate(508.9178245764381 186.2980595613871) rotate(0 58.89088375283529 0.023776525216050004)"><path d="M93.44 7.87 C99.65 4.93, 109.86 0.93, 116.73 -1.2 M93.44 7.87 C102.9 4.87, 110.62 0.24, 116.73 -1.2" stroke="#1e1e1e" stroke-width="2" fill="none"></path></g><g transform="translate(508.9178245764381 186.2980595613871) rotate(0 58.89088375283529 0.023776525216050004)"><path d="M93.05 -9.22 C99.26 -6.51, 109.6 -4.86, 116.73 -1.2 M93.05 -9.22 C102.82 -5.81, 110.69 -4.01, 116.73 -1.2" stroke="#1e1e1e" stroke-width="2" fill="none"></path></g></g><mask></mask><g transform="translate(525.7165908813477 131.9765625) rotate(0 39.509971618652344 25)"><text x="39.509971618652344" y="17.52" font-family="Virgil, Segoe UI Emoji" font-size="20px" fill="#1e1e1e" text-anchor="middle" style="white-space: pre;" direction="ltr" dominant-baseline="alphabetic">Internal</text><text x="39.509971618652344" y="42.519999999999996" font-family="Virgil, Segoe UI Emoji" font-size="20px" fill="#1e1e1e" text-anchor="middle" style="white-space: pre;" direction="ltr" dominant-baseline="alphabetic">calls</text></g><g stroke-linecap="round"><g transform="translate(500.11639575000004 238.45065311342518) rotate(0 107.53766357617155 70.54127484953742)"><path d="M-0.39 0.73 C35.42 24.24, 180.21 117.23, 215.97 140.47 M1.61 0.06 C37.24 23.78, 179.67 118.19, 215.49 141.69" stroke="#1e1e1e" stroke-width="2" fill="none"></path></g><g transform="translate(500.11639575000004 238.45065311342518) rotate(0 107.53766357617155 70.54127484953742)"><path d="M191.17 135.89 C201.9 139.73, 209.23 138.95, 215.49 141.69 M191.17 135.89 C196.03 136.53, 202.61 137.6, 215.49 141.69" stroke="#1e1e1e" stroke-width="2" fill="none"></path></g><g transform="translate(500.11639575000004 238.45065311342518) rotate(0 107.53766357617155 70.54127484953742)"><path d="M200.59 121.61 C207.55 131.03, 211.18 135.86, 215.49 141.69 M200.59 121.61 C203.4 125.55, 207.85 129.84, 215.49 141.69" stroke="#1e1e1e" stroke-width="2" fill="none"></path></g></g><mask></mask><g transform="translate(593.7961196899414 272.859375) rotate(0 28.199974060058594 12.5)"><text x="28.199974060058594" y="17.52" font-family="Virgil, Segoe UI Emoji" font-size="20px" fill="#1e1e1e" text-anchor="middle" style="white-space: pre;" direction="ltr" dominant-baseline="alphabetic">HTTP</text></g></svg>