<svg version="1.1" viewBox="0.0 0.0 694.0 375.0" fill="none" stroke="none" stroke-linecap="square" stroke-miterlimit="10" xmlns:xlink="http://www.w3.org/1999/xlink" xmlns="http://www.w3.org/2000/svg"><clipPath id="p.0"><path d="m0 0l694.0 0l0 375.0l-694.0 0l0 -375.0z" clip-rule="nonzero"/></clipPath><g clip-path="url(#p.0)"><path fill="#000000" fill-opacity="0.0" d="m0 0l694.0 0l0 375.0l-694.0 0z" fill-rule="evenodd"/><path fill="#000000" fill-opacity="0.0" d="m179.64961 36.0l109.70079 0l0 28.598427l-109.70079 0z" fill-rule="evenodd"/><path fill="#000000" d="m224.53517 48.80359l-0.875 0l-0.21875 -1.21875q-0.265625 -0.21875 -0.703125 -0.359375q-0.4375 -0.15625 -1.015625 -0.15625q-0.921875 0 -1.421875 0.390625q-0.484375 0.390625 -0.484375 1.015625q0 0.5625 0.5 0.9375q0.5 0.359375 1.625 0.640625q1.34375 0.34375 2.046875 1.0q0.703125 0.640625 0.703125 1.609375q0 1.03125 -0.84375 1.65625q-0.84375 0.625 -2.203125 0.625q-0.984375 0 -1.75 -0.3125q-0.765625 -0.328125 -1.25 -0.859375l0 -1.578125l0.875 0l0.21875 1.21875q0.34375 0.28125 0.796875 0.453125q0.46875 0.171875 1.109375 0.171875q0.875 0 1.375 -0.359375q0.515625 -0.375 0.515625 -1.015625q0 -0.578125 -0.4375 -0.96875q-0.4375 -0.40625 -1.5625 -0.671875q-1.34375 -0.328125 -2.109375 -0.953125q-0.765625 -0.625 -0.765625 -1.578125q0 -1.0 0.84375 -1.65625q0.859375 -0.671875 2.21875 -0.671875q0.890625 0 1.625 0.3125q0.734375 0.296875 1.1875 0.75l0 1.578125zm3.2441406 -1.859375l0 1.53125l1.203125 0l0 0.859375l-1.203125 0l0 3.84375q0 0.453125 0.1875 0.640625q0.1875 0.171875 0.5 0.171875q0.140625 0 0.328125 -0.015625q0.203125 -0.03125 0.328125 -0.0625l0.15625 0.78125q-0.15625 0.109375 -0.484375 0.171875q-0.3125 0.078125 -0.625 0.078125q-0.703125 0 -1.125 -0.421875q-0.40625 -0.4375 -0.40625 -1.34375l0 -3.84375l-1.015625 0l0 -0.859375l1.015625 0l0 -1.53125l1.140625 0zm6.5195312 7.875q-0.046875 -0.265625 -0.078125 -0.46875q-0.03125 -0.203125 -0.046875 -0.40625q-0.328125 0.421875 -0.828125 0.71875q-0.5 0.28125 -1.078125 0.28125q-0.984375 0 -1.5 -0.484375q-0.515625 -0.484375 -0.515625 -1.359375q0 -0.90625 0.71875 -1.390625q0.734375 -0.5 2.015625 -0.5l1.1875 0l0 -0.734375q0 -0.5625 -0.359375 -0.875q-0.34375 -0.328125 -0.96875 -0.328125q-0.4375 0 -0.765625 0.109375q-0.328125 0.109375 -0.53125 0.296875l-0.125 0.671875l-0.890625 0l0 -1.234375q0.421875 -0.34375 1.03125 -0.546875q0.625 -0.203125 1.34375 -0.203125q1.078125 0 1.75 0.546875q0.671875 0.546875 0.671875 1.578125l0 3.046875q0 0.125 0 0.25q0 0.109375 0.015625 0.234375l0.46875 0.0625l0 0.734375l-1.515625 0zm-1.859375 -0.84375q0.578125 0 1.046875 -0.265625q0.484375 -0.28125 0.6875 -0.671875l0 -1.046875l-1.234375 0q-0.703125 0 -1.125 0.328125q-0.40625 0.328125 -0.40625 0.796875q0 0.421875 0.25 0.640625q0.265625 0.21875 0.78125 0.21875zm6.34375 -7.03125l0 1.53125l1.203125 0l0 0.859375l-1.203125 0l0 3.84375q0 0.453125 0.1875 0.640625q0.1875 0.171875 0.5 0.171875q0.140625 0 0.328125 -0.015625q0.203125 -0.03125 0.328125 -0.0625l0.15625 0.78125q-0.15625 0.109375 -0.484375 0.171875q-0.3125 0.078125 -0.625 0.078125q-0.703125 0 -1.125 -0.421875q-0.40625 -0.4375 -0.40625 -1.34375l0 -3.84375l-1.015625 0l0 -0.859375l1.015625 0l0 -1.53125l1.140625 0zm2.3789062 7.140625l0.96875 -0.171875l0 -4.53125l-0.96875 -0.15625l0 -0.75l2.109375 0l0 5.4375l0.96875 0.171875l0 0.734375l-3.078125 0l0 -0.734375zm2.109375 -7.234375l-1.140625 0l0 -1.171875l1.140625 0l0 1.171875zm4.6933594 7.1875q0.5625 0 1.0 -0.34375q0.4375 -0.359375 0.4375 -0.875l1.046875 0l0 0.03125q0.03125 0.8125 -0.734375 1.453125q-0.75 0.640625 -1.75 0.640625q-1.390625 0 -2.125 -0.90625q-0.71875 -0.90625 -0.71875 -2.265625l0 -0.25q0 -1.34375 0.734375 -2.25q0.734375 -0.90625 2.109375 -0.90625q0.75 0 1.359375 0.25q0.609375 0.25 1.015625 0.6875l0.046875 1.40625l-0.921875 0l-0.25 -1.0q-0.203125 -0.1875 -0.53125 -0.3125q-0.3125 -0.125 -0.71875 -0.125q-0.90625 0 -1.296875 0.65625q-0.390625 0.640625 -0.390625 1.59375l0 0.25q0 0.96875 0.375 1.625q0.390625 0.640625 1.3125 0.640625z" fill-rule="nonzero"/><path fill="#000000" fill-opacity="0.0" d="m48.0 68.0l408.0 -1.0078735" fill-rule="evenodd"/><path stroke="#000000" stroke-width="1.0" stroke-linejoin="round" stroke-linecap="butt" d="m48.0 68.0l408.0 -1.0078735" fill-rule="evenodd"/><path fill="#000000" fill-opacity="0.0" d="m310.6485 35.692913l109.700806 0l0 28.598423l-109.700806 0z" fill-rule="evenodd"/><path fill="#000000" d="m343.88074 45.980877q1.671875 0 2.6875 1.03125q1.015625 1.03125 1.015625 2.65625l0 1.15625q0 1.640625 -1.015625 2.671875q-1.015625 1.015625 -2.6875 1.015625l-3.5625 0l0 -0.734375l0.953125 -0.171875l0 -6.71875l-0.953125 -0.15625l0 -0.75l0.953125 0l2.609375 0zm-1.453125 0.90625l0 6.71875l1.453125 0q1.1875 0 1.875 -0.78125q0.6875 -0.78125 0.6875 -2.0l0 -1.171875q0 -1.203125 -0.6875 -1.984375q-0.6875 -0.78125 -1.875 -0.78125l-1.453125 0zm12.330078 2.03125l-0.5625 0.078125l-2.421875 6.484375q-0.234375 0.640625 -0.6875 1.109375q-0.453125 0.484375 -1.21875 0.484375q-0.125 0 -0.34375 -0.03125q-0.21875 -0.03125 -0.34375 -0.0625l0.125 -0.90625q-0.03125 -0.015625 0.203125 0q0.25 0.03125 0.3125 0.03125q0.359375 0 0.59375 -0.328125q0.234375 -0.3125 0.40625 -0.734375l0.265625 -0.65625l-2.09375 -5.375l-0.578125 -0.09375l0 -0.75l2.5625 0l0 0.75l-0.71875 0.109375l1.09375 3.140625l0.21875 0.796875l0.03125 0l1.328125 -3.9375l-0.734375 -0.109375l0 -0.75l2.5625 0l0 0.75zm0.62109375 4.859375l0.953125 -0.171875l0 -4.53125l-0.953125 -0.15625l0 -0.75l1.984375 0l0.078125 0.953125q0.3125 -0.515625 0.78125 -0.78125q0.484375 -0.28125 1.09375 -0.28125q1.03125 0 1.59375 0.609375q0.5625 0.59375 0.5625 1.84375l0 3.09375l0.953125 0.171875l0 0.734375l-3.0625 0l0 -0.734375l0.953125 -0.171875l0 -3.078125q0 -0.828125 -0.328125 -1.171875q-0.328125 -0.359375 -1.015625 -0.359375q-0.5 0 -0.890625 0.234375q-0.375 0.234375 -0.59375 0.65625l0 3.71875l0.953125 0.171875l0 0.734375l-3.0625 0l0 -0.734375zm12.019531 0.734375q-0.046875 -0.265625 -0.078125 -0.46875q-0.03125 -0.203125 -0.046875 -0.40625q-0.328125 0.421875 -0.828125 0.71875q-0.5 0.28125 -1.078125 0.28125q-0.984375 0 -1.5 -0.484375q-0.515625 -0.484375 -0.515625 -1.359375q0 -0.90625 0.71875 -1.390625q0.734375 -0.5 2.015625 -0.5l1.1875 0l0 -0.734375q0 -0.5625 -0.359375 -0.875q-0.34375 -0.328125 -0.96875 -0.328125q-0.4375 0 -0.765625 0.109375q-0.328125 0.109375 -0.53125 0.296875l-0.125 0.671875l-0.890625 0l0 -1.234375q0.421875 -0.34375 1.03125 -0.546875q0.625 -0.203125 1.34375 -0.203125q1.078125 0 1.75 0.546875q0.671875 0.546875 0.671875 1.578125l0 3.046875q0 0.125 0 0.25q0 0.109375 0.015625 0.234375l0.46875 0.0625l0 0.734375l-1.515625 0zm-1.859375 -0.84375q0.578125 0 1.046875 -0.265625q0.484375 -0.28125 0.6875 -0.671875l0 -1.046875l-1.234375 0q-0.703125 0 -1.125 0.328125q-0.40625 0.328125 -0.40625 0.796875q0 0.421875 0.25 0.640625q0.265625 0.21875 0.78125 0.21875zm4.109375 0.109375l0.953125 -0.171875l0 -4.53125l-0.953125 -0.15625l0 -0.75l1.984375 0l0.078125 0.828125q0.3125 -0.453125 0.78125 -0.6875q0.484375 -0.25 1.125 -0.25q0.625 0 1.078125 0.296875q0.453125 0.28125 0.6875 0.875q0.296875 -0.546875 0.78125 -0.859375q0.5 -0.3125 1.15625 -0.3125q0.96875 0 1.53125 0.671875q0.5625 0.65625 0.5625 1.984375l0 2.890625l0.953125 0.171875l0 0.734375l-3.0625 0l0 -0.734375l0.953125 -0.171875l0 -2.890625q0 -0.9375 -0.328125 -1.328125q-0.3125 -0.390625 -0.953125 -0.390625q-0.59375 0 -0.96875 0.421875q-0.359375 0.421875 -0.421875 1.0625l0 3.125l0.953125 0.171875l0 0.734375l-3.0625 0l0 -0.734375l0.953125 -0.171875l0 -2.890625q0 -0.890625 -0.328125 -1.296875q-0.328125 -0.421875 -0.953125 -0.421875q-0.53125 0 -0.875 0.21875q-0.34375 0.203125 -0.515625 0.609375l0 3.78125l0.953125 0.171875l0 0.734375l-3.0625 0l0 -0.734375zm11.556641 0l0.96875 -0.171875l0 -4.53125l-0.96875 -0.15625l0 -0.75l2.109375 0l0 5.4375l0.96875 0.171875l0 0.734375l-3.078125 0l0 -0.734375zm2.109375 -7.234375l-1.140625 0l0 -1.171875l1.140625 0l0 1.171875zm4.6933594 7.1875q0.5625 0 1.0 -0.34375q0.4375 -0.359375 0.4375 -0.875l1.046875 0l0 0.03125q0.03125 0.8125 -0.734375 1.453125q-0.75 0.640625 -1.75 0.640625q-1.390625 0 -2.125 -0.90625q-0.71875 -0.90625 -0.71875 -2.265625l0 -0.25q0 -1.34375 0.734375 -2.25q0.734375 -0.90625 2.109375 -0.90625q0.75 0 1.359375 0.25q0.609375 0.25 1.015625 0.6875l0.046875 1.40625l-0.921875 0l-0.25 -1.0q-0.203125 -0.1875 -0.53125 -0.3125q-0.3125 -0.125 -0.71875 -0.125q-0.90625 0 -1.296875 0.65625q-0.390625 0.640625 -0.390625 1.59375l0 0.25q0 0.96875 0.375 1.625q0.390625 0.640625 1.3125 0.640625z" fill-rule="nonzero"/><path fill="#000000" fill-opacity="0.0" d="m48.000053 72.0l140.09448 0l0 28.598427l-140.09448 0z" fill-rule="evenodd"/><path fill="#000000" d="m59.85943 83.037964l-0.859375 0.125l1.09375 4.703125l0.15625 1.0625l0.03125 0.015625l0.234375 -1.078125l1.578125 -5.578125l1.015625 0l1.578125 5.578125l0.234375 1.09375l0.03125 0l0.171875 -1.09375l1.0625 -4.703125l-0.859375 -0.125l0 -0.75l2.703125 0l0 0.75l-0.6875 0.078125l-1.859375 7.703125l-1.03125 0l-1.6875 -5.921875l-0.140625 -0.765625l-0.046875 0l-0.140625 0.765625l-1.703125 5.921875l-1.03125 0l-1.859375 -7.703125l-0.6875 -0.078125l0 -0.75l2.703125 0l0 0.75zm8.847656 7.046875l0.96875 -0.171875l0 -4.53125l-0.96875 -0.15625l0 -0.75l2.109375 0l0 5.4375l0.96875 0.171875l0 0.734375l-3.078125 0l0 -0.734375zm2.109375 -7.234375l-1.140625 0l0 -1.171875l1.140625 0l0 1.171875zm3.8496094 0.09375l0 1.53125l1.203125 0l0 0.859375l-1.203125 0l0 3.84375q0 0.453125 0.1875 0.640625q0.1875 0.171875 0.5 0.171875q0.140625 0 0.328125 -0.015625q0.203125 -0.03125 0.328125 -0.0625l0.15625 0.78125q-0.15625 0.109375 -0.484375 0.171875q-0.3125 0.078125 -0.625 0.078125q-0.703125 0 -1.125 -0.421875q-0.40625 -0.4375 -0.40625 -1.34375l0 -3.84375l-1.015625 0l0 -0.859375l1.015625 0l0 -1.53125l1.140625 0zm2.2226562 7.140625l0.953125 -0.171875l0 -7.328125l-0.953125 -0.15625l0 -0.75l2.109375 0l0 3.640625q0.328125 -0.453125 0.796875 -0.703125q0.484375 -0.25 1.0625 -0.25q1.015625 0 1.578125 0.609375q0.5625 0.609375 0.5625 1.875l0 3.0625l0.96875 0.171875l0 0.734375l-3.078125 0l0 -0.734375l0.96875 -0.171875l0 -3.078125q0 -0.78125 -0.34375 -1.15625q-0.34375 -0.375 -1.0 -0.375q-0.484375 0 -0.875 0.234375q-0.390625 0.21875 -0.640625 0.59375l0 3.78125l0.953125 0.171875l0 0.734375l-3.0625 0l0 -0.734375zm7.859375 -2.5q0 -1.40625 0.75 -2.3125q0.765625 -0.90625 2.078125 -0.90625q1.3125 0 2.078125 0.90625q0.765625 0.90625 0.765625 2.3125l0 0.140625q0 1.40625 -0.765625 2.3125q-0.765625 0.90625 -2.0625 0.90625q-1.328125 0 -2.09375 -0.90625q-0.75 -0.90625 -0.75 -2.3125l0 -0.140625zm1.15625 0.140625q0 1.0 0.421875 1.65625q0.421875 0.65625 1.265625 0.65625q0.8125 0 1.234375 -0.65625q0.4375 -0.65625 0.4375 -1.65625l0 -0.140625q0 -0.984375 -0.4375 -1.640625q-0.421875 -0.671875 -1.25 -0.671875q-0.828125 0 -1.25 0.671875q-0.421875 0.65625 -0.421875 1.640625l0 0.140625zm10.107422 2.15625q-0.296875 0.515625 -0.78125 0.796875q-0.46875 0.265625 -1.078125 0.265625q-1.03125 0 -1.609375 -0.65625q-0.578125 -0.671875 -0.578125 -2.078125l0 -2.828125l-0.734375 -0.15625l0 -0.75l0.734375 0l1.140625 0l0 3.75q0 1.015625 0.296875 1.40625q0.3125 0.375 0.9375 0.375q0.625 0 1.015625 -0.25q0.40625 -0.25 0.609375 -0.703125l0 -3.671875l-0.84375 -0.15625l0 -0.75l0.84375 0l1.15625 0l0 5.4375l0.71875 0.171875l0 0.734375l-1.75 0l-0.078125 -0.9375zm4.7578125 -6.9375l0 1.53125l1.203125 0l0 0.859375l-1.203125 0l0 3.84375q0 0.453125 0.1875 0.640625q0.1875 0.171875 0.5 0.171875q0.140625 0 0.328125 -0.015625q0.203125 -0.03125 0.328125 -0.0625l0.15625 0.78125q-0.15625 0.109375 -0.484375 0.171875q-0.3125 0.078125 -0.625 0.078125q-0.703125 0 -1.125 -0.421875q-0.40625 -0.4375 -0.40625 -1.34375l0 -3.84375l-1.015625 0l0 -0.859375l1.015625 0l0 -1.53125l1.140625 0zm10.220703 3.53125l-0.875 0l-0.1875 -0.765625q-0.203125 -0.203125 -0.53125 -0.3125q-0.3125 -0.125 -0.71875 -0.125q-0.609375 0 -0.90625 0.265625q-0.296875 0.265625 -0.296875 0.65625q0 0.375 0.25 0.59375q0.265625 0.203125 1.078125 0.375q1.203125 0.265625 1.78125 0.703125q0.59375 0.4375 0.59375 1.1875q0 0.84375 -0.6875 1.375q-0.671875 0.515625 -1.78125 0.515625q-0.71875 0 -1.296875 -0.171875q-0.578125 -0.171875 -1.015625 -0.484375l-0.015625 -1.4375l0.875 0l0.21875 0.84375q0.1875 0.1875 0.53125 0.265625q0.34375 0.078125 0.703125 0.078125q0.609375 0 0.953125 -0.25q0.359375 -0.25 0.359375 -0.65625q0 -0.375 -0.296875 -0.625q-0.28125 -0.25 -1.09375 -0.421875q-1.15625 -0.25 -1.75 -0.6875q-0.578125 -0.4375 -0.578125 -1.171875q0 -0.78125 0.65625 -1.3125q0.671875 -0.546875 1.71875 -0.546875q0.71875 0 1.296875 0.1875q0.578125 0.1875 0.953125 0.515625l0.0625 1.40625zm4.1640625 4.46875q-1.328125 0 -2.109375 -0.875q-0.78125 -0.890625 -0.78125 -2.296875l0 -0.265625q0 -1.34375 0.796875 -2.234375q0.8125 -0.90625 1.90625 -0.90625q1.28125 0 1.9375 0.78125q0.671875 0.765625 0.671875 2.046875l0 0.71875l-4.125 0l-0.015625 0.03125q0.015625 0.921875 0.453125 1.515625q0.453125 0.578125 1.265625 0.578125q0.578125 0 1.015625 -0.15625q0.453125 -0.171875 0.765625 -0.46875l0.453125 0.75q-0.328125 0.328125 -0.890625 0.5625q-0.5625 0.21875 -1.34375 0.21875zm-0.1875 -5.671875q-0.578125 0 -0.984375 0.484375q-0.40625 0.484375 -0.5 1.234375l0.015625 0.03125l2.921875 0l0 -0.15625q0 -0.6875 -0.375 -1.140625q-0.359375 -0.453125 -1.078125 -0.453125zm7.873047 5.546875q-0.046875 -0.265625 -0.078125 -0.46875q-0.03125 -0.203125 -0.046875 -0.40625q-0.328125 0.421875 -0.828125 0.71875q-0.5 0.28125 -1.078125 0.28125q-0.984375 0 -1.5 -0.484375q-0.515625 -0.484375 -0.515625 -1.359375q0 -0.90625 0.71875 -1.390625q0.734375 -0.5 2.015625 -0.5l1.1875 0l0 -0.734375q0 -0.5625 -0.359375 -0.875q-0.34375 -0.328125 -0.96875 -0.328125q-0.4375 0 -0.765625 0.109375q-0.328125 0.109375 -0.53125 0.296875l-0.125 0.671875l-0.890625 0l0 -1.234375q0.421875 -0.34375 1.03125 -0.546875q0.625 -0.203125 1.34375 -0.203125q1.078125 0 1.75 0.546875q0.671875 0.546875 0.671875 1.578125l0 3.046875q0 0.125 0 0.25q0 0.109375 0.015625 0.234375l0.46875 0.0625l0 0.734375l-1.515625 0zm-1.859375 -0.84375q0.578125 0 1.046875 -0.265625q0.484375 -0.28125 0.6875 -0.671875l0 -1.046875l-1.234375 0q-0.703125 0 -1.125 0.328125q-0.40625 0.328125 -0.40625 0.796875q0 0.421875 0.25 0.640625q0.265625 0.21875 0.78125 0.21875zm4.328125 -4.75l0 -0.75l2.0 0l0.109375 0.921875q0.265625 -0.484375 0.6562424 -0.75q0.40625 -0.28125 0.90625 -0.28125q0.140625 0 0.28125 0.015625q0.140625 0.015625 0.21875 0.046875l-0.15625 1.0625l-0.65625 -0.03125q-0.453125 0 -0.7656174 0.21875q-0.3125 0.21875 -0.484375 0.59375l0 3.640625l0.9687424 0.171875l0 0.734375l-3.0781174 0l0 -0.734375l0.96875 -0.171875l0 -4.53125l-0.96875 -0.15625zm7.71093 4.8125q0.5625 0 1.0 -0.34375q0.4375 -0.359375 0.4375 -0.875l1.046875 0l0 0.03125q0.03125 0.8125 -0.734375 1.453125q-0.75 0.640625 -1.75 0.640625q-1.390625 0 -2.125 -0.90625q-0.71875 -0.90625 -0.71875 -2.265625l0 -0.25q0 -1.34375 0.734375 -2.25q0.734375 -0.90625 2.109375 -0.90625q0.75 0 1.359375 0.25q0.609375 0.25 1.015625 0.6875l0.046875 1.40625l-0.921875 0l-0.25 -1.0q-0.203125 -0.1875 -0.53125 -0.3125q-0.3125 -0.125 -0.71875 -0.125q-0.90625 0 -1.296875 0.65625q-0.390625 0.640625 -0.390625 1.59375l0 0.25q0 0.96875 0.375 1.625q0.390625 0.640625 1.3125 0.640625zm3.453125 0.046875l0.953125 -0.171875l0 -7.328125l-0.953125 -0.15625l0 -0.75l2.109375 0l0 3.640625q0.328125 -0.453125 0.796875 -0.703125q0.484375 -0.25 1.0625 -0.25q1.015625 0 1.578125 0.609375q0.5625 0.609375 0.5625 1.875l0 3.0625l0.96875 0.171875l0 0.734375l-3.078125 0l0 -0.734375l0.96875 -0.171875l0 -3.078125q0 -0.78125 -0.34375 -1.15625q-0.34375 -0.375 -1.0 -0.375q-0.484375 0 -0.875 0.234375q-0.390625 0.21875 -0.640625 0.59375l0 3.78125l0.953125 0.171875l0 0.734375l-3.0625 0l0 -0.734375z" fill-rule="nonzero"/><path fill="#000000" fill-opacity="0.0" d="m48.000053 113.70079l140.09448 0l0 28.59842l-140.09448 0z" fill-rule="evenodd"/><path fill="#000000" d="m59.85943 124.73875l-0.859375 0.125l1.09375 4.7031326l0.15625 1.0625l0.03125 0.015625l0.234375 -1.078125l1.578125 -5.5781326l1.015625 0l1.578125 5.5781326l0.234375 1.09375l0.03125 0l0.171875 -1.09375l1.0625 -4.7031326l-0.859375 -0.125l0 -0.75l2.703125 0l0 0.75l-0.6875 0.078125l-1.859375 7.7031326l-1.03125 0l-1.6875 -5.9218826l-0.140625 -0.765625l-0.046875 0l-0.140625 0.765625l-1.703125 5.9218826l-1.03125 0l-1.859375 -7.7031326l-0.6875 -0.078125l0 -0.75l2.703125 0l0 0.75zm8.847656 7.0468826l0.96875 -0.171875l0 -4.5312576l-0.96875 -0.15625l0 -0.75l2.109375 0l0 5.4375076l0.96875 0.171875l0 0.734375l-3.078125 0l0 -0.734375zm2.109375 -7.2343826l-1.140625 0l0 -1.171875l1.140625 0l0 1.171875zm3.8496094 0.09375l0 1.53125l1.203125 0l0 0.859375l-1.203125 0l0 3.8437576q0 0.453125 0.1875 0.640625q0.1875 0.171875 0.5 0.171875q0.140625 0 0.328125 -0.015625q0.203125 -0.03125 0.328125 -0.0625l0.15625 0.78125q-0.15625 0.109375 -0.484375 0.171875q-0.3125 0.078125 -0.625 0.078125q-0.703125 0 -1.125 -0.421875q-0.40625 -0.4375 -0.40625 -1.34375l0 -3.8437576l-1.015625 0l0 -0.859375l1.015625 0l0 -1.53125l1.140625 0zm2.2226562 7.1406326l0.953125 -0.171875l0 -7.3281326l-0.953125 -0.15625l0 -0.75l2.109375 0l0 3.640625q0.328125 -0.453125 0.796875 -0.703125q0.484375 -0.25 1.0625 -0.25q1.015625 0 1.578125 0.609375q0.5625 0.609375 0.5625 1.8750076l0 3.0625l0.96875 0.171875l0 0.734375l-3.078125 0l0 -0.734375l0.96875 -0.171875l0 -3.078125q0 -0.7812576 -0.34375 -1.1562576q-0.34375 -0.375 -1.0 -0.375q-0.484375 0 -0.875 0.234375q-0.390625 0.21875 -0.640625 0.59375l0 3.7812576l0.953125 0.171875l0 0.734375l-3.0625 0l0 -0.734375zm15.744141 -3.609375l-0.875 0l-0.1875 -0.7656326q-0.203125 -0.203125 -0.53125 -0.3125q-0.3125 -0.125 -0.71875 -0.125q-0.609375 0 -0.90625 0.265625q-0.296875 0.265625 -0.296875 0.65625q0 0.37500763 0.25 0.5937576q0.265625 0.203125 1.078125 0.375q1.203125 0.265625 1.78125 0.703125q0.59375 0.4375 0.59375 1.1875q0 0.84375 -0.6875 1.375q-0.671875 0.515625 -1.78125 0.515625q-0.71875 0 -1.296875 -0.171875q-0.578125 -0.171875 -1.015625 -0.484375l-0.015625 -1.4375l0.875 0l0.21875 0.84375q0.1875 0.1875 0.53125 0.265625q0.34375 0.078125 0.703125 0.078125q0.609375 0 0.953125 -0.25q0.359375 -0.25 0.359375 -0.65625q0 -0.375 -0.296875 -0.625q-0.28125 -0.25 -1.09375 -0.421875q-1.15625 -0.25 -1.75 -0.6875q-0.578125 -0.4375 -0.578125 -1.1718826q0 -0.78125 0.65625 -1.3125q0.671875 -0.546875 1.71875 -0.546875q0.71875 0 1.296875 0.1875q0.578125 0.1875 0.953125 0.515625l0.0625 1.4062576zm4.1640625 4.46875q-1.328125 0 -2.109375 -0.875q-0.78125 -0.890625 -0.78125 -2.296875l0 -0.265625q0 -1.3437576 0.796875 -2.2343826q0.8125 -0.90625 1.90625 -0.90625q1.28125 0 1.9375 0.78125q0.671875 0.765625 0.671875 2.0468826l0 0.71875l-4.125 0l-0.015625 0.03125q0.015625 0.921875 0.453125 1.515625q0.453125 0.578125 1.265625 0.578125q0.578125 0 1.015625 -0.15625q0.453125 -0.171875 0.765625 -0.46875l0.453125 0.75q-0.328125 0.328125 -0.890625 0.5625q-0.5625 0.21875 -1.34375 0.21875zm-0.1875 -5.6718826q-0.578125 0 -0.984375 0.484375q-0.40625 0.484375 -0.5 1.2343826l0.015625 0.03125l2.921875 0l0 -0.15625q0 -0.6875076 -0.375 -1.1406326q-0.359375 -0.453125 -1.078125 -0.453125zm7.873047 5.5468826q-0.046875 -0.265625 -0.078125 -0.46875q-0.03125 -0.203125 -0.046875 -0.40625q-0.328125 0.421875 -0.828125 0.71875q-0.5 0.28125 -1.078125 0.28125q-0.984375 0 -1.5 -0.484375q-0.515625 -0.484375 -0.515625 -1.359375q0 -0.90625 0.71875 -1.390625q0.734375 -0.5 2.015625 -0.5l1.1875 0l0 -0.734375q0 -0.5625076 -0.359375 -0.8750076q-0.34375 -0.328125 -0.96875 -0.328125q-0.4375 0 -0.765625 0.109375q-0.328125 0.109375 -0.53125 0.296875l-0.125 0.6718826l-0.890625 0l0 -1.2343826q0.421875 -0.34375 1.03125 -0.546875q0.625 -0.203125 1.34375 -0.203125q1.078125 0 1.75 0.546875q0.671875 0.546875 0.671875 1.5781326l0 3.046875q0 0.125 0 0.25q0 0.109375 0.015625 0.234375l0.46875 0.0625l0 0.734375l-1.515625 0zm-1.859375 -0.84375q0.578125 0 1.046875 -0.265625q0.484375 -0.28125 0.6875 -0.671875l0 -1.046875l-1.234375 0q-0.703125 0 -1.125 0.328125q-0.40625 0.328125 -0.40625 0.796875q0 0.421875 0.25 0.640625q0.265625 0.21875 0.78125 0.21875zm4.328125 -4.7500076l0 -0.75l2.0 0l0.109375 0.921875q0.265625 -0.484375 0.65625 -0.75q0.40625 -0.28125 0.90625 -0.28125q0.140625 0 0.28125 0.015625q0.140625 0.015625 0.21875 0.046875l-0.15625 1.0625l-0.65625 -0.03125q-0.453125 0 -0.765625 0.21875q-0.3125 0.21875 -0.484375 0.59375l0 3.6406326l0.96875 0.171875l0 0.734375l-3.078125 0l0 -0.734375l0.96875 -0.171875l0 -4.5312576l-0.96875 -0.15625zm7.7109375 4.8125076q0.5625 0 1.0 -0.34375q0.4375 -0.359375 0.4375 -0.875l1.046875 0l0 0.03125q0.03125 0.8125 -0.734375 1.453125q-0.75 0.640625 -1.75 0.640625q-1.390625 0 -2.125 -0.90625q-0.71875 -0.90625 -0.71875 -2.265625l0 -0.25q0 -1.3437576 0.734375 -2.2500076q0.734375 -0.90625 2.109375 -0.90625q0.75 0 1.359375 0.25q0.609375 0.25 1.015625 0.6875l0.046875 1.4062576l-0.921875 0l-0.25 -1.0000076q-0.203125 -0.1875 -0.53125 -0.3125q-0.3125 -0.125 -0.71875 -0.125q-0.90625 0 -1.296875 0.65625q-0.390625 0.6406326 -0.390625 1.5937576l0 0.25q0 0.96875 0.375 1.625q0.390625 0.640625 1.3125 0.640625zm3.453125 0.046875l0.953125 -0.171875l0 -7.3281326l-0.953125 -0.15625l0 -0.75l2.109375 0l0 3.640625q0.328125 -0.453125 0.796875 -0.703125q0.484375 -0.25 1.0625 -0.25q1.015625 0 1.578125 0.609375q0.5625 0.609375 0.5625 1.8750076l0 3.0625l0.96875 0.171875l0 0.734375l-3.078125 0l0 -0.734375l0.96875 -0.171875l0 -3.078125q0 -0.7812576 -0.34375 -1.1562576q-0.34375 -0.375 -1.0 -0.375q-0.484375 0 -0.875 0.234375q-0.390625 0.21875 -0.640625 0.59375l0 3.7812576l0.953125 0.171875l0 0.734375l-3.0625 0l0 -0.734375z" fill-rule="nonzero"/><path fill="#000000" fill-opacity="0.0" d="m48.0 108.0l408.0 0" fill-rule="evenodd"/><path stroke="#000000" stroke-width="1.0" stroke-linejoin="round" stroke-linecap="butt" d="m48.0 108.0l408.0 0" fill-rule="evenodd"/><path fill="#000000" fill-opacity="0.0" d="m48.0 148.0l409.5118 0" fill-rule="evenodd"/><path stroke="#000000" stroke-width="1.0" stroke-linejoin="round" stroke-linecap="butt" d="m48.0 148.0l409.5118 0" fill-rule="evenodd"/><path fill="#000000" fill-opacity="0.0" d="m169.0 148.0l0 -106.01575" fill-rule="evenodd"/><path stroke="#000000" stroke-width="1.0" stroke-linejoin="round" stroke-linecap="butt" d="m169.0 148.0l0 -106.01575" fill-rule="evenodd"/><path fill="#000000" fill-opacity="0.0" d="m300.0 148.0l0 -106.01575" fill-rule="evenodd"/><path stroke="#000000" stroke-width="1.0" stroke-linejoin="round" stroke-linecap="butt" d="m300.0 148.0l0 -106.01575" fill-rule="evenodd"/><path fill="#000000" fill-opacity="0.0" d="m178.00005 73.70079l140.0945 0l0 28.59842l-140.0945 0z" fill-rule="evenodd"/><path fill="#000000" d="m193.5938 79.50437l-0.875 0l-0.21875 -1.21875q-0.265625 -0.21875 -0.703125 -0.359375q-0.4375 -0.15625 -1.015625 -0.15625q-0.921875 0 -1.421875 0.390625q-0.484375 0.390625 -0.484375 1.015625q0 0.5625 0.5 0.9375q0.5 0.359375 1.625 0.640625q1.34375 0.34375 2.046875 1.0q0.703125 0.640625 0.703125 1.609375q0 1.03125 -0.84375 1.65625q-0.84375 0.625 -2.203125 0.625q-0.984375 0 -1.75 -0.3125q-0.765625 -0.328125 -1.25 -0.859375l0 -1.578125l0.875 0l0.21875 1.21875q0.34375 0.28125 0.796875 0.453125q0.46875 0.171875 1.109375 0.171875q0.875 0 1.375 -0.359375q0.515625 -0.375 0.515625 -1.015625q0 -0.578125 -0.4375 -0.96875q-0.4375 -0.40625 -1.5625 -0.671875q-1.34375 -0.328125 -2.109375 -0.953125q-0.765625 -0.625 -0.765625 -1.578125q0 -1.0 0.84375 -1.65625q0.859375 -0.671875 2.21875 -0.671875q0.890625 0 1.625 0.3125q0.734375 0.296875 1.1875 0.75l0 1.578125zm3.2441406 -1.859375l0 1.53125l1.203125 0l0 0.859375l-1.203125 0l0 3.84375q0 0.453125 0.1875 0.640625q0.1875 0.171875 0.5 0.171875q0.140625 0 0.328125 -0.015625q0.203125 -0.03125 0.328125 -0.0625l0.15625 0.78125q-0.15625 0.109375 -0.484375 0.171875q-0.3125 0.078125 -0.625 0.078125q-0.703125 0 -1.125 -0.421875q-0.40625 -0.4375 -0.40625 -1.34375l0 -3.84375l-1.015625 0l0 -0.859375l1.015625 0l0 -1.53125l1.140625 0zm6.5195312 7.875q-0.046875 -0.265625 -0.078125 -0.46875q-0.03125 -0.203125 -0.046875 -0.40625q-0.328125 0.421875 -0.828125 0.71875q-0.5 0.28125 -1.078125 0.28125q-0.984375 0 -1.5 -0.484375q-0.515625 -0.484375 -0.515625 -1.359375q0 -0.90625 0.71875 -1.390625q0.734375 -0.5 2.015625 -0.5l1.1875 0l0 -0.734375q0 -0.5625 -0.359375 -0.875q-0.34375 -0.328125 -0.96875 -0.328125q-0.4375 0 -0.765625 0.109375q-0.328125 0.109375 -0.53125 0.296875l-0.125 0.671875l-0.890625 0l0 -1.234375q0.421875 -0.34375 1.03125 -0.546875q0.625 -0.203125 1.34375 -0.203125q1.078125 0 1.75 0.546875q0.671875 0.546875 0.671875 1.578125l0 3.046875q0 0.125 0 0.25q0 0.109375 0.015625 0.234375l0.46875 0.0625l0 0.734375l-1.515625 0zm-1.859375 -0.84375q0.578125 0 1.046875 -0.265625q0.484375 -0.28125 0.6875 -0.671875l0 -1.046875l-1.234375 0q-0.703125 0 -1.125 0.328125q-0.40625 0.328125 -0.40625 0.796875q0 0.421875 0.25 0.640625q0.265625 0.21875 0.78125 0.21875zm6.34375 -7.03125l0 1.53125l1.203125 0l0 0.859375l-1.203125 0l0 3.84375q0 0.453125 0.1875 0.640625q0.1875 0.171875 0.5 0.171875q0.140625 0 0.328125 -0.015625q0.203125 -0.03125 0.328125 -0.0625l0.15625 0.78125q-0.15625 0.109375 -0.484375 0.171875q-0.3125 0.078125 -0.625 0.078125q-0.703125 0 -1.125 -0.421875q-0.40625 -0.4375 -0.40625 -1.34375l0 -3.84375l-1.015625 0l0 -0.859375l1.015625 0l0 -1.53125l1.140625 0zm2.3789062 7.140625l0.96875 -0.171875l0 -4.53125l-0.96875 -0.15625l0 -0.75l2.109375 0l0 5.4375l0.96875 0.171875l0 0.734375l-3.078125 0l0 -0.734375zm2.109375 -7.234375l-1.140625 0l0 -1.171875l1.140625 0l0 1.171875zm4.6933594 7.1875q0.5625 0 1.0 -0.34375q0.4375 -0.359375 0.4375 -0.875l1.046875 0l0 0.03125q0.03125 0.8125 -0.734375 1.453125q-0.75 0.640625 -1.75 0.640625q-1.390625 0 -2.125 -0.90625q-0.71875 -0.90625 -0.71875 -2.265625l0 -0.25q0 -1.34375 0.734375 -2.25q0.734375 -0.90625 2.109375 -0.90625q0.75 0 1.359375 0.25q0.609375 0.25 1.015625 0.6875l0.046875 1.40625l-0.921875 0l-0.25 -1.0q-0.203125 -0.1875 -0.53125 -0.3125q-0.3125 -0.125 -0.71875 -0.125q-0.90625 0 -1.296875 0.65625q-0.390625 0.640625 -0.390625 1.59375l0 0.25q0 0.96875 0.375 1.625q0.390625 0.640625 1.3125 0.640625zm10.873047 0.03125q-0.3125 0.421875 -0.765625 0.65625q-0.4375 0.21875 -1.03125 0.21875q-1.171875 0 -1.828125 -0.84375q-0.640625 -0.84375 -0.640625 -2.21875l0 -0.109375q0 -1.53125 0.640625 -2.46875q0.65625 -0.9375 1.828125 -0.9375q0.5625 0 1.0 0.203125q0.4375 0.203125 0.734375 0.59375l0 -2.578125l-0.953125 -0.15625l0 -0.75l0.953125 0l1.15625 0l0 8.234375l0.953125 0.171875l0 0.734375l-1.953125 0l-0.09375 -0.75zm-3.109375 -2.1875q0 0.96875 0.390625 1.546875q0.390625 0.578125 1.203125 0.578125q0.515625 0 0.859375 -0.234375q0.359375 -0.234375 0.59375 -0.671875l0 -2.9375q-0.21875 -0.390625 -0.578125 -0.625q-0.359375 -0.234375 -0.859375 -0.234375q-0.828125 0 -1.21875 0.6875q-0.390625 0.671875 -0.390625 1.78125l0 0.109375zm6.029297 -2.65625l0 -0.75l2.0 0l0.109375 0.921875q0.265625 -0.484375 0.65625 -0.75q0.40625 -0.28125 0.90625 -0.28125q0.140625 0 0.28125 0.015625q0.140625 0.015625 0.21875 0.046875l-0.15625 1.0625l-0.65625 -0.03125q-0.453125 0 -0.765625 0.21875q-0.3125 0.21875 -0.484375 0.59375l0 3.640625l0.96875 0.171875l0 0.734375l-3.078125 0l0 -0.734375l0.96875 -0.171875l0 -4.53125l-0.96875 -0.15625zm4.861328 2.359375q0 -1.40625 0.75 -2.3125q0.765625 -0.90625 2.078125 -0.90625q1.3125 0 2.078125 0.90625q0.765625 0.90625 0.765625 2.3125l0 0.140625q0 1.40625 -0.765625 2.3125q-0.765625 0.90625 -2.0625 0.90625q-1.328125 0 -2.09375 -0.90625q-0.75 -0.90625 -0.75 -2.3125l0 -0.140625zm1.15625 0.140625q0 1.0 0.421875 1.65625q0.421875 0.65625 1.265625 0.65625q0.8125 0 1.234375 -0.65625q0.4375 -0.65625 0.4375 -1.65625l0 -0.140625q0 -0.984375 -0.4375 -1.640625q-0.421875 -0.671875 -1.25 -0.671875q-0.828125 0 -1.25 0.671875q-0.421875 0.65625 -0.421875 1.640625l0 0.140625zm5.419922 4.78125l0.96875 -0.15625l0 -6.96875l-0.96875 -0.15625l0 -0.75l1.953125 0l0.109375 0.78125q0.3125 -0.4375 0.765625 -0.65625q0.453125 -0.234375 1.046875 -0.234375q1.1875 0 1.828125 0.9375q0.65625 0.921875 0.65625 2.46875l0 0.109375q0 1.375 -0.65625 2.21875q-0.65625 0.84375 -1.8125 0.84375q-0.578125 0 -1.03125 -0.1875q-0.4375 -0.203125 -0.75 -0.59375l0 2.1875l0.96875 0.15625l0 0.75l-3.078125 0l0 -0.75zm5.203125 -4.734375q0 -1.09375 -0.421875 -1.78125q-0.421875 -0.6875 -1.25 -0.6875q-0.5 0 -0.859375 0.21875q-0.34375 0.21875 -0.5625 0.609375l0 3.09375q0.21875 0.390625 0.5625 0.609375q0.359375 0.203125 0.875 0.203125q0.8125 0 1.234375 -0.59375q0.421875 -0.59375 0.421875 -1.5625l0 -0.109375zm6.484375 2.296875q-0.3125 0.421875 -0.765625 0.65625q-0.4375 0.21875 -1.03125 0.21875q-1.171875 0 -1.828125 -0.84375q-0.640625 -0.84375 -0.640625 -2.21875l0 -0.109375q0 -1.53125 0.640625 -2.46875q0.65625 -0.9375 1.828125 -0.9375q0.5625 0 1.0 0.203125q0.4375 0.203125 0.734375 0.59375l0 -2.578125l-0.953125 -0.15625l0 -0.75l0.953125 0l1.15625 0l0 8.234375l0.953125 0.171875l0 0.734375l-1.953125 0l-0.09375 -0.75zm-3.109375 -2.1875q0 0.96875 0.390625 1.546875q0.390625 0.578125 1.203125 0.578125q0.515625 0 0.859375 -0.234375q0.359375 -0.234375 0.59375 -0.671875l0 -2.9375q-0.21875 -0.390625 -0.578125 -0.625q-0.359375 -0.234375 -0.859375 -0.234375q-0.828125 0 -1.21875 0.6875q-0.390625 0.671875 -0.390625 1.78125l0 0.109375zm6.044937 -0.296875q0 -1.40625 0.75 -2.3125q0.765625 -0.90625 2.078125 -0.90625q1.3125 0 2.078125 0.90625q0.765625 0.90625 0.765625 2.3125l0 0.140625q0 1.40625 -0.765625 2.3125q-0.765625 0.90625 -2.0625 0.90625q-1.328125 0 -2.09375 -0.90625q-0.75 -0.90625 -0.75 -2.3125l0 -0.140625zm1.15625 0.140625q0 1.0 0.421875 1.65625q0.421875 0.65625 1.265625 0.65625q0.8125 0 1.234375 -0.65625q0.4375 -0.65625 0.4375 -1.65625l0 -0.140625q0 -0.984375 -0.4375 -1.640625q-0.421875 -0.671875 -1.25 -0.671875q-0.828125 0 -1.25 0.671875q-0.421875 0.65625 -0.421875 1.640625l0 0.140625zm7.810547 -2.5l-0.71875 0.125l0.828125 3.15625l0.125 0.765625l0.046875 0l0.15625 -0.765625l1.265625 -4.03125l0.921875 0l1.28125 4.03125l0.171875 0.859375l0.046875 0l0.171875 -0.859375l0.765625 -3.15625l-0.734375 -0.125l0 -0.75l2.421875 0l0 0.75l-0.5625 0.078125l-1.59375 5.515625l-0.9375 0l-1.21875 -3.859375l-0.265625 -1.0625l-0.03125 0l-0.25 1.0625l-1.203125 3.859375l-0.9375 0l-1.59375 -5.515625l-0.5625 -0.078125l0 -0.75l2.40625 0l0 0.75zm7.513672 4.859375l0.953125 -0.171875l0 -4.53125l-0.953125 -0.15625l0 -0.75l1.984375 0l0.078125 0.953125q0.3125 -0.515625 0.78125 -0.78125q0.484375 -0.28125 1.09375 -0.28125q1.03125 0 1.59375 0.609375q0.5625 0.59375 0.5625 1.84375l0 3.09375l0.953125 0.171875l0 0.734375l-3.0625 0l0 -0.734375l0.953125 -0.171875l0 -3.078125q0 -0.828125 -0.328125 -1.171875q-0.328125 -0.359375 -1.015625 -0.359375q-0.5 0 -0.890625 0.234375q-0.375 0.234375 -0.59375 0.65625l0 3.71875l0.953125 0.171875l0 0.734375l-3.0625 0l0 -0.734375z" fill-rule="nonzero"/><path fill="#000000" d="m189.76567 93.92625l-0.71875 0.125l0.828125 3.15625l0.125 0.765625l0.046875 0l0.15625 -0.765625l1.265625 -4.03125l0.921875 0l1.28125 4.03125l0.171875 0.859375l0.046875 0l0.171875 -0.859375l0.765625 -3.15625l-0.734375 -0.125l0 -0.75l2.421875 0l0 0.75l-0.5625 0.078125l-1.59375 5.515625l-0.9375 0l-1.21875 -3.859375l-0.265625 -1.0625l-0.03125 0l-0.25 1.0625l-1.203125 3.859375l-0.9375 0l-1.59375 -5.515625l-0.5625 -0.078125l0 -0.75l2.40625 0l0 0.75zm7.669922 4.859375l0.96875 -0.171875l0 -4.53125l-0.96875 -0.15625l0 -0.75l2.109375 0l0 5.4375l0.96875 0.171875l0 0.734375l-3.078125 0l0 -0.734375zm2.109375 -7.234375l-1.140625 0l0 -1.171875l1.140625 0l0 1.171875zm3.8496094 0.09375l0 1.53125l1.203125 0l0 0.859375l-1.203125 0l0 3.84375q0 0.453125 0.1875 0.640625q0.1875 0.171875 0.5 0.171875q0.140625 0 0.328125 -0.015625q0.203125 -0.03125 0.328125 -0.0625l0.15625 0.78125q-0.15625 0.109375 -0.484375 0.171875q-0.3125 0.078125 -0.625 0.078125q-0.703125 0 -1.125 -0.421875q-0.40625 -0.4375 -0.40625 -1.34375l0 -3.84375l-1.015625 0l0 -0.859375l1.015625 0l0 -1.53125l1.140625 0zm2.2226562 7.140625l0.953125 -0.171875l0 -7.328125l-0.953125 -0.15625l0 -0.75l2.109375 0l0 3.640625q0.328125 -0.453125 0.796875 -0.703125q0.484375 -0.25 1.0625 -0.25q1.015625 0 1.578125 0.609375q0.5625 0.609375 0.5625 1.875l0 3.0625l0.96875 0.171875l0 0.734375l-3.078125 0l0 -0.734375l0.96875 -0.171875l0 -3.078125q0 -0.78125 -0.34375 -1.15625q-0.34375 -0.375 -1.0 -0.375q-0.484375 0 -0.875 0.234375q-0.390625 0.21875 -0.640625 0.59375l0 3.78125l0.953125 0.171875l0 0.734375l-3.0625 0l0 -0.734375zm7.859375 -2.5q0 -1.40625 0.75 -2.3125q0.765625 -0.90625 2.078125 -0.90625q1.3125 0 2.078125 0.90625q0.765625 0.90625 0.765625 2.3125l0 0.140625q0 1.40625 -0.765625 2.3125q-0.765625 0.90625 -2.0625 0.90625q-1.328125 0 -2.09375 -0.90625q-0.75 -0.90625 -0.75 -2.3125l0 -0.140625zm1.15625 0.140625q0 1.0 0.421875 1.65625q0.421875 0.65625 1.265625 0.65625q0.8125 0 1.234375 -0.65625q0.4375 -0.65625 0.4375 -1.65625l0 -0.140625q0 -0.984375 -0.4375 -1.640625q-0.421875 -0.671875 -1.25 -0.671875q-0.828125 0 -1.25 0.671875q-0.421875 0.65625 -0.421875 1.640625l0 0.140625zm10.107422 2.15625q-0.296875 0.515625 -0.78125 0.796875q-0.46875 0.265625 -1.078125 0.265625q-1.03125 0 -1.609375 -0.65625q-0.578125 -0.671875 -0.578125 -2.078125l0 -2.828125l-0.734375 -0.15625l0 -0.75l0.734375 0l1.140625 0l0 3.75q0 1.015625 0.296875 1.40625q0.3125 0.375 0.9375 0.375q0.625 0 1.015625 -0.25q0.40625 -0.25 0.609375 -0.703125l0 -3.671875l-0.84375 -0.15625l0 -0.75l0.84375 0l1.15625 0l0 5.4375l0.71875 0.171875l0 0.734375l-1.75 0l-0.078125 -0.9375zm4.7578125 -6.9375l0 1.53125l1.203125 0l0 0.859375l-1.203125 0l0 3.84375q0 0.453125 0.1875 0.640625q0.1875 0.171875 0.5 0.171875q0.140625 0 0.328125 -0.015625q0.203125 -0.03125 0.328125 -0.0625l0.15625 0.78125q-0.15625 0.109375 -0.484375 0.171875q-0.3125 0.078125 -0.625 0.078125q-0.703125 0 -1.125 -0.421875q-0.40625 -0.4375 -0.40625 -1.34375l0 -3.84375l-1.015625 0l0 -0.859375l1.015625 0l0 -1.53125l1.140625 0zm10.220703 3.53125l-0.875 0l-0.1875 -0.765625q-0.203125 -0.203125 -0.53125 -0.3125q-0.3125 -0.125 -0.71875 -0.125q-0.609375 0 -0.90625 0.265625q-0.296875 0.265625 -0.296875 0.65625q0 0.375 0.25 0.59375q0.265625 0.203125 1.078125 0.375q1.203125 0.265625 1.78125 0.703125q0.59375 0.4375 0.59375 1.1875q0 0.84375 -0.6875 1.375q-0.671875 0.515625 -1.78125 0.515625q-0.71875 0 -1.296875 -0.171875q-0.578125 -0.171875 -1.015625 -0.484375l-0.015625 -1.4375l0.875 0l0.21875 0.84375q0.1875 0.1875 0.53125 0.265625q0.34375 0.078125 0.703125 0.078125q0.609375 0 0.953125 -0.25q0.359375 -0.25 0.359375 -0.65625q0 -0.375 -0.296875 -0.625q-0.28125 -0.25 -1.09375 -0.421875q-1.15625 -0.25 -1.75 -0.6875q-0.578125 -0.4375 -0.578125 -1.171875q0 -0.78125 0.65625 -1.3125q0.671875 -0.546875 1.71875 -0.546875q0.71875 0 1.296875 0.1875q0.578125 0.1875 0.953125 0.515625l0.0625 1.40625zm4.1640625 4.46875q-1.328125 0 -2.109375 -0.875q-0.78125 -0.890625 -0.78125 -2.296875l0 -0.265625q0 -1.34375 0.796875 -2.234375q0.8125 -0.90625 1.90625 -0.90625q1.28125 0 1.9375 0.78125q0.671875 0.765625 0.671875 2.046875l0 0.71875l-4.125 0l-0.015625 0.03125q0.015625 0.921875 0.453125 1.515625q0.453125 0.578125 1.265625 0.578125q0.578125 0 1.015625 -0.15625q0.453125 -0.171875 0.765625 -0.46875l0.453125 0.75q-0.328125 0.328125 -0.890625 0.5625q-0.5625 0.21875 -1.34375 0.21875zm-0.1875 -5.671875q-0.578125 0 -0.984375 0.484375q-0.40625 0.484375 -0.5 1.234375l0.015625 0.03125l2.921875 0l0 -0.15625q0 -0.6875 -0.375 -1.140625q-0.359375 -0.453125 -1.078125 -0.453125zm7.873047 5.546875q-0.046875 -0.265625 -0.078125 -0.46875q-0.03125 -0.203125 -0.046875 -0.40625q-0.328125 0.421875 -0.828125 0.71875q-0.5 0.28125 -1.078125 0.28125q-0.984375 0 -1.5 -0.484375q-0.515625 -0.484375 -0.515625 -1.359375q0 -0.90625 0.71875 -1.390625q0.734375 -0.5 2.015625 -0.5l1.1875 0l0 -0.734375q0 -0.5625 -0.359375 -0.875q-0.34375 -0.328125 -0.96875 -0.328125q-0.4375 0 -0.765625 0.109375q-0.328125 0.109375 -0.53125 0.296875l-0.125 0.671875l-0.890625 0l0 -1.234375q0.421875 -0.34375 1.03125 -0.546875q0.625 -0.203125 1.34375 -0.203125q1.078125 0 1.75 0.546875q0.671875 0.546875 0.671875 1.578125l0 3.046875q0 0.125 0 0.25q0 0.109375 0.015625 0.234375l0.46875 0.0625l0 0.734375l-1.515625 0zm-1.859375 -0.84375q0.578125 0 1.046875 -0.265625q0.484375 -0.28125 0.6875 -0.671875l0 -1.046875l-1.234375 0q-0.703125 0 -1.125 0.328125q-0.40625 0.328125 -0.40625 0.796875q0 0.421875 0.25 0.640625q0.265625 0.21875 0.78125 0.21875zm4.328125 -4.75l0 -0.75l2.0000153 0l0.109375 0.921875q0.265625 -0.484375 0.65625 -0.75q0.40625 -0.28125 0.90625 -0.28125q0.140625 0 0.28125 0.015625q0.140625 0.015625 0.21875 0.046875l-0.15625 1.0625l-0.65625 -0.03125q-0.453125 0 -0.765625 0.21875q-0.3125 0.21875 -0.484375 0.59375l0 3.640625l0.96875 0.171875l0 0.734375l-3.0781403 0l0 -0.734375l0.96875 -0.171875l0 -4.53125l-0.96875 -0.15625zm7.7109528 4.8125q0.5625 0 1.0 -0.34375q0.4375 -0.359375 0.4375 -0.875l1.046875 0l0 0.03125q0.03125 0.8125 -0.734375 1.453125q-0.75 0.640625 -1.75 0.640625q-1.390625 0 -2.125 -0.90625q-0.71875 -0.90625 -0.71875 -2.265625l0 -0.25q0 -1.34375 0.734375 -2.25q0.734375 -0.90625 2.109375 -0.90625q0.75 0 1.359375 0.25q0.609375 0.25 1.015625 0.6875l0.046875 1.40625l-0.921875 0l-0.25 -1.0q-0.203125 -0.1875 -0.53125 -0.3125q-0.3125 -0.125 -0.71875 -0.125q-0.90625 0 -1.296875 0.65625q-0.390625 0.640625 -0.390625 1.59375l0 0.25q0 0.96875 0.375 1.625q0.390625 0.640625 1.3125 0.640625zm3.453125 0.046875l0.953125 -0.171875l0 -7.328125l-0.953125 -0.15625l0 -0.75l2.109375 0l0 3.640625q0.328125 -0.453125 0.796875 -0.703125q0.484375 -0.25 1.0625 -0.25q1.015625 0 1.578125 0.609375q0.5625 0.609375 0.5625 1.875l0 3.0625l0.96875 0.171875l0 0.734375l-3.078125 0l0 -0.734375l0.96875 -0.171875l0 -3.078125q0 -0.78125 -0.34375 -1.15625q-0.34375 -0.375 -1.0 -0.375q-0.484375 0 -0.875 0.234375q-0.390625 0.21875 -0.640625 0.59375l0 3.78125l0.953125 0.171875l0 0.734375l-3.0625 0l0 -0.734375z" fill-rule="nonzero"/><path fill="#000000" fill-opacity="0.0" d="m178.00005 113.70079l140.0945 0l0 28.59842l-140.0945 0z" fill-rule="evenodd"/><path fill="#000000" d="m193.5938 119.50437l-0.875 0l-0.21875 -1.21875q-0.265625 -0.21875 -0.703125 -0.359375q-0.4375 -0.15625 -1.015625 -0.15625q-0.921875 0 -1.421875 0.390625q-0.484375 0.390625 -0.484375 1.015625q0 0.5625 0.5 0.9375q0.5 0.359375 1.625 0.640625q1.34375 0.34375 2.046875 1.0q0.703125 0.640625 0.703125 1.609375q0 1.03125 -0.84375 1.65625q-0.84375 0.625 -2.203125 0.625q-0.984375 0 -1.75 -0.3125q-0.765625 -0.328125 -1.25 -0.859375l0 -1.578125l0.875 0l0.21875 1.21875q0.34375 0.28125 0.796875 0.453125q0.46875 0.171875 1.109375 0.171875q0.875 0 1.375 -0.359375q0.515625 -0.375 0.515625 -1.015625q0 -0.578125 -0.4375 -0.96875q-0.4375 -0.40625 -1.5625 -0.671875q-1.34375 -0.328125 -2.109375 -0.953125q-0.765625 -0.625 -0.765625 -1.578125q0 -1.0 0.84375 -1.65625q0.859375 -0.671875 2.21875 -0.671875q0.890625 0 1.625 0.3125q0.734375 0.296875 1.1875 0.75l0 1.578125zm3.2441406 -1.859375l0 1.53125l1.203125 0l0 0.859375l-1.203125 0l0 3.84375q0 0.453125 0.1875 0.640625q0.1875 0.171875 0.5 0.171875q0.140625 0 0.328125 -0.015625q0.203125 -0.03125 0.328125 -0.0625l0.15625 0.78125q-0.15625 0.109375 -0.484375 0.171875q-0.3125 0.078125 -0.625 0.078125q-0.703125 0 -1.125 -0.421875q-0.40625 -0.4375 -0.40625 -1.34375l0 -3.84375l-1.015625 0l0 -0.859375l1.015625 0l0 -1.53125l1.140625 0zm6.5195312 7.875q-0.046875 -0.265625 -0.078125 -0.46875q-0.03125 -0.203125 -0.046875 -0.40625q-0.328125 0.421875 -0.828125 0.71875q-0.5 0.28125 -1.078125 0.28125q-0.984375 0 -1.5 -0.484375q-0.515625 -0.484375 -0.515625 -1.359375q0 -0.90625 0.71875 -1.390625q0.734375 -0.5 2.015625 -0.5l1.1875 0l0 -0.734375q0 -0.5625 -0.359375 -0.875q-0.34375 -0.328125 -0.96875 -0.328125q-0.4375 0 -0.765625 0.109375q-0.328125 0.109375 -0.53125 0.296875l-0.125 0.671875l-0.890625 0l0 -1.234375q0.421875 -0.34375 1.03125 -0.546875q0.625 -0.203125 1.34375 -0.203125q1.078125 0 1.75 0.546875q0.671875 0.546875 0.671875 1.578125l0 3.046875q0 0.125 0 0.25q0 0.109375 0.015625 0.234375l0.46875 0.0625l0 0.734375l-1.515625 0zm-1.859375 -0.84375q0.578125 0 1.046875 -0.265625q0.484375 -0.28125 0.6875 -0.671875l0 -1.046875l-1.234375 0q-0.703125 0 -1.125 0.328125q-0.40625 0.328125 -0.40625 0.796875q0 0.421875 0.25 0.640625q0.265625 0.21875 0.78125 0.21875zm6.34375 -7.03125l0 1.53125l1.203125 0l0 0.859375l-1.203125 0l0 3.84375q0 0.453125 0.1875 0.640625q0.1875 0.171875 0.5 0.171875q0.140625 0 0.328125 -0.015625q0.203125 -0.03125 0.328125 -0.0625l0.15625 0.78125q-0.15625 0.109375 -0.484375 0.171875q-0.3125 0.078125 -0.625 0.078125q-0.703125 0 -1.125 -0.421875q-0.40625 -0.4375 -0.40625 -1.34375l0 -3.84375l-1.015625 0l0 -0.859375l1.015625 0l0 -1.53125l1.140625 0zm2.3789062 7.140625l0.96875 -0.171875l0 -4.53125l-0.96875 -0.15625l0 -0.75l2.109375 0l0 5.4375l0.96875 0.171875l0 0.734375l-3.078125 0l0 -0.734375zm2.109375 -7.234375l-1.140625 0l0 -1.171875l1.140625 0l0 1.171875zm4.6933594 7.1875q0.5625 0 1.0 -0.34375q0.4375 -0.359375 0.4375 -0.875l1.046875 0l0 0.03125q0.03125 0.8125 -0.734375 1.453125q-0.75 0.640625 -1.75 0.640625q-1.390625 0 -2.125 -0.90625q-0.71875 -0.90625 -0.71875 -2.265625l0 -0.25q0 -1.34375 0.734375 -2.25q0.734375 -0.90625 2.109375 -0.90625q0.75 0 1.359375 0.25q0.609375 0.25 1.015625 0.6875l0.046875 1.40625l-0.921875 0l-0.25 -1.0q-0.203125 -0.1875 -0.53125 -0.3125q-0.3125 -0.125 -0.71875 -0.125q-0.90625 0 -1.296875 0.65625q-0.390625 0.640625 -0.390625 1.59375l0 0.25q0 0.96875 0.375 1.625q0.390625 0.640625 1.3125 0.640625zm10.873047 0.03125q-0.3125 0.421875 -0.765625 0.65625q-0.4375 0.21875 -1.03125 0.21875q-1.171875 0 -1.828125 -0.84375q-0.640625 -0.84375 -0.640625 -2.21875l0 -0.109375q0 -1.53125 0.640625 -2.46875q0.65625 -0.9375 1.828125 -0.9375q0.5625 0 1.0 0.203125q0.4375 0.203125 0.734375 0.59375l0 -2.578125l-0.953125 -0.15625l0 -0.75l0.953125 0l1.15625 0l0 8.234375l0.953125 0.171875l0 0.734375l-1.953125 0l-0.09375 -0.75zm-3.109375 -2.1875q0 0.96875 0.390625 1.546875q0.390625 0.578125 1.203125 0.578125q0.515625 0 0.859375 -0.234375q0.359375 -0.234375 0.59375 -0.671875l0 -2.9375q-0.21875 -0.390625 -0.578125 -0.625q-0.359375 -0.234375 -0.859375 -0.234375q-0.828125 0 -1.21875 0.6875q-0.390625 0.671875 -0.390625 1.78125l0 0.109375zm6.029297 -2.65625l0 -0.75l2.0 0l0.109375 0.921875q0.265625 -0.484375 0.65625 -0.75q0.40625 -0.28125 0.90625 -0.28125q0.140625 0 0.28125 0.015625q0.140625 0.015625 0.21875 0.046875l-0.15625 1.0625l-0.65625 -0.03125q-0.453125 0 -0.765625 0.21875q-0.3125 0.21875 -0.484375 0.59375l0 3.640625l0.96875 0.171875l0 0.734375l-3.078125 0l0 -0.734375l0.96875 -0.171875l0 -4.53125l-0.96875 -0.15625zm4.861328 2.359375q0 -1.40625 0.75 -2.3125q0.765625 -0.90625 2.078125 -0.90625q1.3125 0 2.078125 0.90625q0.765625 0.90625 0.765625 2.3125l0 0.140625q0 1.40625 -0.765625 2.3125q-0.765625 0.90625 -2.0625 0.90625q-1.328125 0 -2.09375 -0.90625q-0.75 -0.90625 -0.75 -2.3125l0 -0.140625zm1.15625 0.140625q0 1.0 0.421875 1.65625q0.421875 0.65625 1.265625 0.65625q0.8125 0 1.234375 -0.65625q0.4375 -0.65625 0.4375 -1.65625l0 -0.140625q0 -0.984375 -0.4375 -1.640625q-0.421875 -0.671875 -1.25 -0.671875q-0.828125 0 -1.25 0.671875q-0.421875 0.65625 -0.421875 1.640625l0 0.140625zm5.419922 4.78125l0.96875 -0.15625l0 -6.96875l-0.96875 -0.15625l0 -0.75l1.953125 0l0.109375 0.78125q0.3125 -0.4375 0.765625 -0.65625q0.453125 -0.234375 1.046875 -0.234375q1.1875 0 1.828125 0.9375q0.65625 0.921875 0.65625 2.46875l0 0.109375q0 1.375 -0.65625 2.21875q-0.65625 0.84375 -1.8125 0.84375q-0.578125 0 -1.03125 -0.1875q-0.4375 -0.203125 -0.75 -0.59375l0 2.1875l0.96875 0.15625l0 0.75l-3.078125 0l0 -0.75zm5.203125 -4.734375q0 -1.09375 -0.421875 -1.78125q-0.421875 -0.6875 -1.25 -0.6875q-0.5 0 -0.859375 0.21875q-0.34375 0.21875 -0.5625 0.609375l0 3.09375q0.21875 0.390625 0.5625 0.609375q0.359375 0.203125 0.875 0.203125q0.8125 0 1.234375 -0.59375q0.421875 -0.59375 0.421875 -1.5625l0 -0.109375zm6.484375 2.296875q-0.3125 0.421875 -0.765625 0.65625q-0.4375 0.21875 -1.03125 0.21875q-1.171875 0 -1.828125 -0.84375q-0.640625 -0.84375 -0.640625 -2.21875l0 -0.109375q0 -1.53125 0.640625 -2.46875q0.65625 -0.9375 1.828125 -0.9375q0.5625 0 1.0 0.203125q0.4375 0.203125 0.734375 0.59375l0 -2.578125l-0.953125 -0.15625l0 -0.75l0.953125 0l1.15625 0l0 8.234375l0.953125 0.171875l0 0.734375l-1.953125 0l-0.09375 -0.75zm-3.109375 -2.1875q0 0.96875 0.390625 1.546875q0.390625 0.578125 1.203125 0.578125q0.515625 0 0.859375 -0.234375q0.359375 -0.234375 0.59375 -0.671875l0 -2.9375q-0.21875 -0.390625 -0.578125 -0.625q-0.359375 -0.234375 -0.859375 -0.234375q-0.828125 0 -1.21875 0.6875q-0.390625 0.671875 -0.390625 1.78125l0 0.109375zm6.044937 -0.296875q0 -1.40625 0.75 -2.3125q0.765625 -0.90625 2.078125 -0.90625q1.3125 0 2.078125 0.90625q0.765625 0.90625 0.765625 2.3125l0 0.140625q0 1.40625 -0.765625 2.3125q-0.765625 0.90625 -2.0625 0.90625q-1.328125 0 -2.09375 -0.90625q-0.75 -0.90625 -0.75 -2.3125l0 -0.140625zm1.15625 0.140625q0 1.0 0.421875 1.65625q0.421875 0.65625 1.265625 0.65625q0.8125 0 1.234375 -0.65625q0.4375 -0.65625 0.4375 -1.65625l0 -0.140625q0 -0.984375 -0.4375 -1.640625q-0.421875 -0.671875 -1.25 -0.671875q-0.828125 0 -1.25 0.671875q-0.421875 0.65625 -0.421875 1.640625l0 0.140625zm7.810547 -2.5l-0.71875 0.125l0.828125 3.15625l0.125 0.765625l0.046875 0l0.15625 -0.765625l1.265625 -4.03125l0.921875 0l1.28125 4.03125l0.171875 0.859375l0.046875 0l0.171875 -0.859375l0.765625 -3.15625l-0.734375 -0.125l0 -0.75l2.421875 0l0 0.75l-0.5625 0.078125l-1.59375 5.515625l-0.9375 0l-1.21875 -3.859375l-0.265625 -1.0625l-0.03125 0l-0.25 1.0625l-1.203125 3.859375l-0.9375 0l-1.59375 -5.515625l-0.5625 -0.078125l0 -0.75l2.40625 0l0 0.75zm7.513672 4.859375l0.953125 -0.171875l0 -4.53125l-0.953125 -0.15625l0 -0.75l1.984375 0l0.078125 0.953125q0.3125 -0.515625 0.78125 -0.78125q0.484375 -0.28125 1.09375 -0.28125q1.03125 0 1.59375 0.609375q0.5625 0.59375 0.5625 1.84375l0 3.09375l0.953125 0.171875l0 0.734375l-3.0625 0l0 -0.734375l0.953125 -0.171875l0 -3.078125q0 -0.828125 -0.328125 -1.171875q-0.328125 -0.359375 -1.015625 -0.359375q-0.5 0 -0.890625 0.234375q-0.375 0.234375 -0.59375 0.65625l0 3.71875l0.953125 0.171875l0 0.734375l-3.0625 0l0 -0.734375z" fill-rule="nonzero"/><path fill="#000000" d="m189.76567 133.92625l-0.71875 0.125l0.828125 3.15625l0.125 0.765625l0.046875 0l0.15625 -0.765625l1.265625 -4.03125l0.921875 0l1.28125 4.03125l0.171875 0.859375l0.046875 0l0.171875 -0.859375l0.765625 -3.15625l-0.734375 -0.125l0 -0.75l2.421875 0l0 0.75l-0.5625 0.078125l-1.59375 5.515625l-0.9375 0l-1.21875 -3.859375l-0.265625 -1.0625l-0.03125 0l-0.25 1.0625l-1.203125 3.859375l-0.9375 0l-1.59375 -5.515625l-0.5625 -0.078125l0 -0.75l2.40625 0l0 0.75zm7.669922 4.859375l0.96875 -0.171875l0 -4.53125l-0.96875 -0.15625l0 -0.75l2.109375 0l0 5.4375l0.96875 0.171875l0 0.734375l-3.078125 0l0 -0.734375zm2.109375 -7.234375l-1.140625 0l0 -1.171875l1.140625 0l0 1.171875zm3.8496094 0.09375l0 1.53125l1.203125 0l0 0.859375l-1.203125 0l0 3.84375q0 0.453125 0.1875 0.640625q0.1875 0.171875 0.5 0.171875q0.140625 0 0.328125 -0.015625q0.203125 -0.03125 0.328125 -0.0625l0.15625 0.78125q-0.15625 0.109375 -0.484375 0.171875q-0.3125 0.078125 -0.625 0.078125q-0.703125 0 -1.125 -0.421875q-0.40625 -0.4375 -0.40625 -1.34375l0 -3.84375l-1.015625 0l0 -0.859375l1.015625 0l0 -1.53125l1.140625 0zm2.2226562 7.140625l0.953125 -0.171875l0 -7.328125l-0.953125 -0.15625l0 -0.75l2.109375 0l0 3.640625q0.328125 -0.453125 0.796875 -0.703125q0.484375 -0.25 1.0625 -0.25q1.015625 0 1.578125 0.609375q0.5625 0.609375 0.5625 1.875l0 3.0625l0.96875 0.171875l0 0.734375l-3.078125 0l0 -0.734375l0.96875 -0.171875l0 -3.078125q0 -0.78125 -0.34375 -1.15625q-0.34375 -0.375 -1.0 -0.375q-0.484375 0 -0.875 0.234375q-0.390625 0.21875 -0.640625 0.59375l0 3.78125l0.953125 0.171875l0 0.734375l-3.0625 0l0 -0.734375zm15.744141 -3.609375l-0.875 0l-0.1875 -0.765625q-0.203125 -0.203125 -0.53125 -0.3125q-0.3125 -0.125 -0.71875 -0.125q-0.609375 0 -0.90625 0.265625q-0.296875 0.265625 -0.296875 0.65625q0 0.375 0.25 0.59375q0.265625 0.203125 1.078125 0.375q1.203125 0.265625 1.78125 0.703125q0.59375 0.4375 0.59375 1.1875q0 0.84375 -0.6875 1.375q-0.671875 0.515625 -1.78125 0.515625q-0.71875 0 -1.296875 -0.171875q-0.578125 -0.171875 -1.015625 -0.484375l-0.015625 -1.4375l0.875 0l0.21875 0.84375q0.1875 0.1875 0.53125 0.265625q0.34375 0.078125 0.703125 0.078125q0.609375 0 0.953125 -0.25q0.359375 -0.25 0.359375 -0.65625q0 -0.375 -0.296875 -0.625q-0.28125 -0.25 -1.09375 -0.421875q-1.15625 -0.25 -1.75 -0.6875q-0.578125 -0.4375 -0.578125 -1.171875q0 -0.78125 0.65625 -1.3125q0.671875 -0.546875 1.71875 -0.546875q0.71875 0 1.296875 0.1875q0.578125 0.1875 0.953125 0.515625l0.0625 1.40625zm4.1640625 4.46875q-1.328125 0 -2.109375 -0.875q-0.78125 -0.890625 -0.78125 -2.296875l0 -0.265625q0 -1.34375 0.796875 -2.234375q0.8125 -0.90625 1.90625 -0.90625q1.28125 0 1.9375 0.78125q0.671875 0.765625 0.671875 2.046875l0 0.71875l-4.125 0l-0.015625 0.03125q0.015625 0.921875 0.453125 1.515625q0.453125 0.578125 1.265625 0.578125q0.578125 0 1.015625 -0.15625q0.453125 -0.171875 0.765625 -0.46875l0.453125 0.75q-0.328125 0.328125 -0.890625 0.5625q-0.5625 0.21875 -1.34375 0.21875zm-0.1875 -5.671875q-0.578125 0 -0.984375 0.484375q-0.40625 0.484375 -0.5 1.234375l0.015625 0.03125l2.921875 0l0 -0.15625q0 -0.6875 -0.375 -1.140625q-0.359375 -0.453125 -1.078125 -0.453125zm7.873047 5.546875q-0.046875 -0.265625 -0.078125 -0.46875q-0.03125 -0.203125 -0.046875 -0.40625q-0.328125 0.421875 -0.828125 0.71875q-0.5 0.28125 -1.078125 0.28125q-0.984375 0 -1.5 -0.484375q-0.515625 -0.484375 -0.515625 -1.359375q0 -0.90625 0.71875 -1.390625q0.734375 -0.5 2.015625 -0.5l1.1875 0l0 -0.734375q0 -0.5625 -0.359375 -0.875q-0.34375 -0.328125 -0.96875 -0.328125q-0.4375 0 -0.765625 0.109375q-0.328125 0.109375 -0.53125 0.296875l-0.125 0.671875l-0.890625 0l0 -1.234375q0.421875 -0.34375 1.03125 -0.546875q0.625 -0.203125 1.34375 -0.203125q1.078125 0 1.75 0.546875q0.671875 0.546875 0.671875 1.578125l0 3.046875q0 0.125 0 0.25q0 0.109375 0.015625 0.234375l0.46875 0.0625l0 0.734375l-1.515625 0zm-1.859375 -0.84375q0.578125 0 1.046875 -0.265625q0.484375 -0.28125 0.6875 -0.671875l0 -1.046875l-1.234375 0q-0.703125 0 -1.125 0.328125q-0.40625 0.328125 -0.40625 0.796875q0 0.421875 0.25 0.640625q0.265625 0.21875 0.78125 0.21875zm4.328125 -4.75l0 -0.75l2.0 0l0.109375 0.921875q0.265625 -0.484375 0.65625 -0.75q0.40625 -0.28125 0.90625 -0.28125q0.140625 0 0.28125 0.015625q0.140625 0.015625 0.21875 0.046875l-0.15625 1.0625l-0.65625 -0.03125q-0.453125 0 -0.765625 0.21875q-0.3125 0.21875 -0.484375 0.59375l0 3.640625l0.96875 0.171875l0 0.734375l-3.078125 0l0 -0.734375l0.96875 -0.171875l0 -4.53125l-0.96875 -0.15625zm7.7109375 4.8125q0.5625 0 1.0 -0.34375q0.4375 -0.359375 0.4375 -0.875l1.046875 0l0 0.03125q0.03125 0.8125 -0.734375 1.453125q-0.75 0.640625 -1.75 0.640625q-1.390625 0 -2.125 -0.90625q-0.71875 -0.90625 -0.71875 -2.265625l0 -0.25q0 -1.34375 0.734375 -2.25q0.734375 -0.90625 2.109375 -0.90625q0.75 0 1.359375 0.25q0.609375 0.25 1.015625 0.6875l0.046875 1.40625l-0.921875 0l-0.25 -1.0q-0.203125 -0.1875 -0.53125 -0.3125q-0.3125 -0.125 -0.71875 -0.125q-0.90625 0 -1.296875 0.65625q-0.390625 0.640625 -0.390625 1.59375l0 0.25q0 0.96875 0.375 1.625q0.390625 0.640625 1.3125 0.640625zm3.453125 0.046875l0.953125 -0.171875l0 -7.328125l-0.953125 -0.15625l0 -0.75l2.109375 0l0 3.640625q0.328125 -0.453125 0.796875 -0.703125q0.484375 -0.25 1.0625 -0.25q1.015625 0 1.578125 0.609375q0.5625 0.609375 0.5625 1.875l0 3.0625l0.96875 0.171875l0 0.734375l-3.078125 0l0 -0.734375l0.96875 -0.171875l0 -3.078125q0 -0.78125 -0.34375 -1.15625q-0.34375 -0.375 -1.0 -0.375q-0.484375 0 -0.875 0.234375q-0.390625 0.21875 -0.640625 0.59375l0 3.78125l0.953125 0.171875l0 0.734375l-3.0625 0l0 -0.734375z" fill-rule="nonzero"/><path fill="#000000" fill-opacity="0.0" d="m306.00006 73.70079l140.09448 0l0 28.59842l-140.09448 0z" fill-rule="evenodd"/><path fill="#000000" d="m318.98444 76.98875q1.671875 0 2.6875 1.03125q1.015625 1.03125 1.015625 2.65625l0 1.15625q0 1.640625 -1.015625 2.671875q-1.015625 1.015625 -2.6875 1.015625l-3.5625 0l0 -0.734375l0.953125 -0.171875l0 -6.71875l-0.953125 -0.15625l0 -0.75l0.953125 0l2.609375 0zm-1.453125 0.90625l0 6.71875l1.453125 0q1.1875 0 1.875 -0.78125q0.6875 -0.78125 0.6875 -2.0l0 -1.171875q0 -1.203125 -0.6875 -1.984375q-0.6875 -0.78125 -1.875 -0.78125l-1.453125 0zm12.330078 2.03125l-0.5625 0.078125l-2.421875 6.484375q-0.234375 0.640625 -0.6875 1.109375q-0.453125 0.484375 -1.21875 0.484375q-0.125 0 -0.34375 -0.03125q-0.21875 -0.03125 -0.34375 -0.0625l0.125 -0.90625q-0.03125 -0.015625 0.203125 0q0.25 0.03125 0.3125 0.03125q0.359375 0 0.59375 -0.328125q0.234375 -0.3125 0.40625 -0.734375l0.265625 -0.65625l-2.09375 -5.375l-0.578125 -0.09375l0 -0.75l2.5625 0l0 0.75l-0.71875 0.109375l1.09375 3.140625l0.21875 0.796875l0.03125 0l1.328125 -3.9375l-0.734375 -0.109375l0 -0.75l2.5625 0l0 0.75zm0.62109375 4.859375l0.953125 -0.171875l0 -4.53125l-0.953125 -0.15625l0 -0.75l1.984375 0l0.078125 0.953125q0.3125 -0.515625 0.78125 -0.78125q0.484375 -0.28125 1.09375 -0.28125q1.03125 0 1.59375 0.609375q0.5625 0.59375 0.5625 1.84375l0 3.09375l0.953125 0.171875l0 0.734375l-3.0625 0l0 -0.734375l0.953125 -0.171875l0 -3.078125q0 -0.828125 -0.328125 -1.171875q-0.328125 -0.359375 -1.015625 -0.359375q-0.5 0 -0.890625 0.234375q-0.375 0.234375 -0.59375 0.65625l0 3.71875l0.953125 0.171875l0 0.734375l-3.0625 0l0 -0.734375zm12.019531 0.734375q-0.046875 -0.265625 -0.078125 -0.46875q-0.03125 -0.203125 -0.046875 -0.40625q-0.328125 0.421875 -0.828125 0.71875q-0.5 0.28125 -1.078125 0.28125q-0.984375 0 -1.5 -0.484375q-0.515625 -0.484375 -0.515625 -1.359375q0 -0.90625 0.71875 -1.390625q0.734375 -0.5 2.015625 -0.5l1.1875 0l0 -0.734375q0 -0.5625 -0.359375 -0.875q-0.34375 -0.328125 -0.96875 -0.328125q-0.4375 0 -0.765625 0.109375q-0.328125 0.109375 -0.53125 0.296875l-0.125 0.671875l-0.890625 0l0 -1.234375q0.421875 -0.34375 1.03125 -0.546875q0.625 -0.203125 1.34375 -0.203125q1.078125 0 1.75 0.546875q0.671875 0.546875 0.671875 1.578125l0 3.046875q0 0.125 0 0.25q0 0.109375 0.015625 0.234375l0.46875 0.0625l0 0.734375l-1.515625 0zm-1.859375 -0.84375q0.578125 0 1.046875 -0.265625q0.484375 -0.28125 0.6875 -0.671875l0 -1.046875l-1.234375 0q-0.703125 0 -1.125 0.328125q-0.40625 0.328125 -0.40625 0.796875q0 0.421875 0.25 0.640625q0.265625 0.21875 0.78125 0.21875zm4.109375 0.109375l0.953125 -0.171875l0 -4.53125l-0.953125 -0.15625l0 -0.75l1.984375 0l0.078125 0.828125q0.3125 -0.453125 0.78125 -0.6875q0.484375 -0.25 1.125 -0.25q0.625 0 1.078125 0.296875q0.453125 0.28125 0.6875 0.875q0.296875 -0.546875 0.78125 -0.859375q0.5 -0.3125 1.15625 -0.3125q0.96875 0 1.53125 0.671875q0.5625 0.65625 0.5625 1.984375l0 2.890625l0.953125 0.171875l0 0.734375l-3.0625 0l0 -0.734375l0.953125 -0.171875l0 -2.890625q0 -0.9375 -0.328125 -1.328125q-0.3125 -0.390625 -0.953125 -0.390625q-0.59375 0 -0.96875 0.421875q-0.359375 0.421875 -0.421875 1.0625l0 3.125l0.953125 0.171875l0 0.734375l-3.0625 0l0 -0.734375l0.953125 -0.171875l0 -2.890625q0 -0.890625 -0.328125 -1.296875q-0.328125 -0.421875 -0.953125 -0.421875q-0.53125 0 -0.875 0.21875q-0.34375 0.203125 -0.515625 0.609375l0 3.78125l0.953125 0.171875l0 0.734375l-3.0625 0l0 -0.734375zm11.556641 0l0.96875 -0.171875l0 -4.53125l-0.96875 -0.15625l0 -0.75l2.109375 0l0 5.4375l0.96875 0.171875l0 0.734375l-3.078125 0l0 -0.734375zm2.109375 -7.234375l-1.140625 0l0 -1.171875l1.140625 0l0 1.171875zm4.6933594 7.1875q0.5625 0 1.0 -0.34375q0.4375 -0.359375 0.4375 -0.875l1.046875 0l0 0.03125q0.03125 0.8125 -0.734375 1.453125q-0.75 0.640625 -1.75 0.640625q-1.390625 0 -2.125 -0.90625q-0.71875 -0.90625 -0.71875 -2.265625l0 -0.25q0 -1.34375 0.734375 -2.25q0.734375 -0.90625 2.109375 -0.90625q0.75 0 1.359375 0.25q0.609375 0.25 1.015625 0.6875l0.046875 1.40625l-0.921875 0l-0.25 -1.0q-0.203125 -0.1875 -0.53125 -0.3125q-0.3125 -0.125 -0.71875 -0.125q-0.90625 0 -1.296875 0.65625q-0.390625 0.640625 -0.390625 1.59375l0 0.25q0 0.96875 0.375 1.625q0.390625 0.640625 1.3125 0.640625zm10.873047 0.03125q-0.3125 0.421875 -0.765625 0.65625q-0.4375 0.21875 -1.03125 0.21875q-1.171875 0 -1.828125 -0.84375q-0.640625 -0.84375 -0.640625 -2.21875l0 -0.109375q0 -1.53125 0.640625 -2.46875q0.65625 -0.9375 1.828125 -0.9375q0.5625 0 1.0 0.203125q0.4375 0.203125 0.734375 0.59375l0 -2.578125l-0.953125 -0.15625l0 -0.75l0.953125 0l1.15625 0l0 8.234375l0.953125 0.171875l0 0.734375l-1.953125 0l-0.09375 -0.75zm-3.109375 -2.1875q0 0.96875 0.390625 1.546875q0.390625 0.578125 1.203125 0.578125q0.515625 0 0.859375 -0.234375q0.359375 -0.234375 0.59375 -0.671875l0 -2.9375q-0.21875 -0.390625 -0.578125 -0.625q-0.359375 -0.234375 -0.859375 -0.234375q-0.828125 0 -1.21875 0.6875q-0.390625 0.671875 -0.390625 1.78125l0 0.109375zm6.029297 -2.65625l0 -0.75l2.0 0l0.109375 0.921875q0.265625 -0.484375 0.65625 -0.75q0.40625 -0.28125 0.90625 -0.28125q0.140625 0 0.28125 0.015625q0.140625 0.015625 0.21875 0.046875l-0.15625 1.0625l-0.65625 -0.03125q-0.453125 0 -0.765625 0.21875q-0.3125 0.21875 -0.484375 0.59375l0 3.640625l0.96875 0.171875l0 0.734375l-3.078125 0l0 -0.734375l0.96875 -0.171875l0 -4.53125l-0.96875 -0.15625zm4.861328 2.359375q0 -1.40625 0.75 -2.3125q0.765625 -0.90625 2.078125 -0.90625q1.3125 0 2.078125 0.90625q0.765625 0.90625 0.765625 2.3125l0 0.140625q0 1.40625 -0.765625 2.3125q-0.765625 0.90625 -2.0625 0.90625q-1.328125 0 -2.09375 -0.90625q-0.75 -0.90625 -0.75 -2.3125l0 -0.140625zm1.15625 0.140625q0 1.0 0.421875 1.65625q0.421875 0.65625 1.265625 0.65625q0.8125 0 1.234375 -0.65625q0.4375 -0.65625 0.4375 -1.65625l0 -0.140625q0 -0.984375 -0.4375 -1.640625q-0.421875 -0.671875 -1.25 -0.671875q-0.828125 0 -1.25 0.671875q-0.421875 0.65625 -0.421875 1.640625l0 0.140625zm5.419922 4.78125l0.96875 -0.15625l0 -6.96875l-0.96875 -0.15625l0 -0.75l1.953125 0l0.109375 0.78125q0.3125 -0.4375 0.765625 -0.65625q0.453125 -0.234375 1.046875 -0.234375q1.1875 0 1.828125 0.9375q0.65625 0.921875 0.65625 2.46875l0 0.109375q0 1.375 -0.65625 2.21875q-0.65625 0.84375 -1.8125 0.84375q-0.578125 0 -1.03125 -0.1875q-0.4375 -0.203125 -0.75 -0.59375l0 2.1875l0.96875 0.15625l0 0.75l-3.078125 0l0 -0.75zm5.203125 -4.734375q0 -1.09375 -0.421875 -1.78125q-0.421875 -0.6875 -1.25 -0.6875q-0.5 0 -0.859375 0.21875q-0.34375 0.21875 -0.5625 0.609375l0 3.09375q0.21875 0.390625 0.5625 0.609375q0.359375 0.203125 0.875 0.203125q0.8125 0 1.234375 -0.59375q0.421875 -0.59375 0.421875 -1.5625l0 -0.109375zm6.484375 2.296875q-0.3125 0.421875 -0.765625 0.65625q-0.4375 0.21875 -1.03125 0.21875q-1.171875 0 -1.828125 -0.84375q-0.640625 -0.84375 -0.640625 -2.21875l0 -0.109375q0 -1.53125 0.640625 -2.46875q0.65625 -0.9375 1.828125 -0.9375q0.5625 0 1.0 0.203125q0.4375 0.203125 0.734375 0.59375l0 -2.578125l-0.953125 -0.15625l0 -0.75l0.953125 0l1.15625 0l0 8.234375l0.953125 0.171875l0 0.734375l-1.953125 0l-0.09375 -0.75zm-3.109375 -2.1875q0 0.96875 0.390625 1.546875q0.390625 0.578125 1.203125 0.578125q0.515625 0 0.859375 -0.234375q0.359375 -0.234375 0.59375 -0.671875l0 -2.9375q-0.21875 -0.390625 -0.578125 -0.625q-0.359375 -0.234375 -0.859375 -0.234375q-0.828125 0 -1.21875 0.6875q-0.390625 0.671875 -0.390625 1.78125l0 0.109375zm6.044922 -0.296875q0 -1.40625 0.75 -2.3125q0.765625 -0.90625 2.078125 -0.90625q1.3125 0 2.078125 0.90625q0.765625 0.90625 0.765625 2.3125l0 0.140625q0 1.40625 -0.765625 2.3125q-0.765625 0.90625 -2.0625 0.90625q-1.328125 0 -2.09375 -0.90625q-0.75 -0.90625 -0.75 -2.3125l0 -0.140625zm1.15625 0.140625q0 1.0 0.421875 1.65625q0.421875 0.65625 1.265625 0.65625q0.8125 0 1.234375 -0.65625q0.4375 -0.65625 0.4375 -1.65625l0 -0.140625q0 -0.984375 -0.4375 -1.640625q-0.421875 -0.671875 -1.25 -0.671875q-0.828125 0 -1.25 0.671875q-0.421875 0.65625 -0.421875 1.640625l0 0.140625zm7.810547 -2.5l-0.71875 0.125l0.828125 3.15625l0.125 0.765625l0.046875 0l0.15625 -0.765625l1.265625 -4.03125l0.921875 0l1.28125 4.03125l0.171875 0.859375l0.046875 0l0.171875 -0.859375l0.765625 -3.15625l-0.734375 -0.125l0 -0.75l2.421875 0l0 0.75l-0.5625 0.078125l-1.59375 5.515625l-0.9375 0l-1.21875 -3.859375l-0.265625 -1.0625l-0.03125 0l-0.25 1.0625l-1.203125 3.859375l-0.9375 0l-1.59375 -5.515625l-0.5625 -0.078125l0 -0.75l2.40625 0l0 0.75zm7.513672 4.859375l0.953125 -0.171875l0 -4.53125l-0.953125 -0.15625l0 -0.75l1.984375 0l0.078125 0.953125q0.3125 -0.515625 0.78125 -0.78125q0.484375 -0.28125 1.09375 -0.28125q1.03125 0 1.59375 0.609375q0.5625 0.59375 0.5625 1.84375l0 3.09375l0.953125 0.171875l0 0.734375l-3.0625 0l0 -0.734375l0.953125 -0.171875l0 -3.078125q0 -0.828125 -0.328125 -1.171875q-0.328125 -0.359375 -1.015625 -0.359375q-0.5 0 -0.890625 0.234375q-0.375 0.234375 -0.59375 0.65625l0 3.71875l0.953125 0.171875l0 0.734375l-3.0625 0l0 -0.734375z" fill-rule="nonzero"/><path fill="#000000" d="m317.7657 93.92625l-0.71875 0.125l0.828125 3.15625l0.125 0.765625l0.046875 0l0.15625 -0.765625l1.265625 -4.03125l0.921875 0l1.28125 4.03125l0.171875 0.859375l0.046875 0l0.171875 -0.859375l0.765625 -3.15625l-0.734375 -0.125l0 -0.75l2.421875 0l0 0.75l-0.5625 0.078125l-1.59375 5.515625l-0.9375 0l-1.21875 -3.859375l-0.265625 -1.0625l-0.03125 0l-0.25 1.0625l-1.203125 3.859375l-0.9375 0l-1.59375 -5.515625l-0.5625 -0.078125l0 -0.75l2.40625 0l0 0.75zm7.669922 4.859375l0.96875 -0.171875l0 -4.53125l-0.96875 -0.15625l0 -0.75l2.109375 0l0 5.4375l0.96875 0.171875l0 0.734375l-3.078125 0l0 -0.734375zm2.109375 -7.234375l-1.140625 0l0 -1.171875l1.140625 0l0 1.171875zm3.8496094 0.09375l0 1.53125l1.203125 0l0 0.859375l-1.203125 0l0 3.84375q0 0.453125 0.1875 0.640625q0.1875 0.171875 0.5 0.171875q0.140625 0 0.328125 -0.015625q0.203125 -0.03125 0.328125 -0.0625l0.15625 0.78125q-0.15625 0.109375 -0.484375 0.171875q-0.3125 0.078125 -0.625 0.078125q-0.703125 0 -1.125 -0.421875q-0.40625 -0.4375 -0.40625 -1.34375l0 -3.84375l-1.015625 0l0 -0.859375l1.015625 0l0 -1.53125l1.140625 0zm2.2226562 7.140625l0.953125 -0.171875l0 -7.328125l-0.953125 -0.15625l0 -0.75l2.109375 0l0 3.640625q0.328125 -0.453125 0.796875 -0.703125q0.484375 -0.25 1.0625 -0.25q1.015625 0 1.578125 0.609375q0.5625 0.609375 0.5625 1.875l0 3.0625l0.96875 0.171875l0 0.734375l-3.078125 0l0 -0.734375l0.96875 -0.171875l0 -3.078125q0 -0.78125 -0.34375 -1.15625q-0.34375 -0.375 -1.0 -0.375q-0.484375 0 -0.875 0.234375q-0.390625 0.21875 -0.640625 0.59375l0 3.78125l0.953125 0.171875l0 0.734375l-3.0625 0l0 -0.734375zm7.859375 -2.5q0 -1.40625 0.75 -2.3125q0.765625 -0.90625 2.078125 -0.90625q1.3125 0 2.078125 0.90625q0.765625 0.90625 0.765625 2.3125l0 0.140625q0 1.40625 -0.765625 2.3125q-0.765625 0.90625 -2.0625 0.90625q-1.328125 0 -2.09375 -0.90625q-0.75 -0.90625 -0.75 -2.3125l0 -0.140625zm1.15625 0.140625q0 1.0 0.421875 1.65625q0.421875 0.65625 1.265625 0.65625q0.8125 0 1.234375 -0.65625q0.4375 -0.65625 0.4375 -1.65625l0 -0.140625q0 -0.984375 -0.4375 -1.640625q-0.421875 -0.671875 -1.25 -0.671875q-0.828125 0 -1.25 0.671875q-0.421875 0.65625 -0.421875 1.640625l0 0.140625zm10.107422 2.15625q-0.296875 0.515625 -0.78125 0.796875q-0.46875 0.265625 -1.078125 0.265625q-1.03125 0 -1.609375 -0.65625q-0.578125 -0.671875 -0.578125 -2.078125l0 -2.828125l-0.734375 -0.15625l0 -0.75l0.734375 0l1.140625 0l0 3.75q0 1.015625 0.296875 1.40625q0.3125 0.375 0.9375 0.375q0.625 0 1.015625 -0.25q0.40625 -0.25 0.609375 -0.703125l0 -3.671875l-0.84375 -0.15625l0 -0.75l0.84375 0l1.15625 0l0 5.4375l0.71875 0.171875l0 0.734375l-1.75 0l-0.078125 -0.9375zm4.7578125 -6.9375l0 1.53125l1.203125 0l0 0.859375l-1.203125 0l0 3.84375q0 0.453125 0.1875 0.640625q0.1875 0.171875 0.5 0.171875q0.140625 0 0.328125 -0.015625q0.203125 -0.03125 0.328125 -0.0625l0.15625 0.78125q-0.15625 0.109375 -0.484375 0.171875q-0.3125 0.078125 -0.625 0.078125q-0.703125 0 -1.125 -0.421875q-0.40625 -0.4375 -0.40625 -1.34375l0 -3.84375l-1.015625 0l0 -0.859375l1.015625 0l0 -1.53125l1.140625 0zm10.220703 3.53125l-0.875 0l-0.1875 -0.765625q-0.203125 -0.203125 -0.53125 -0.3125q-0.3125 -0.125 -0.71875 -0.125q-0.609375 0 -0.90625 0.265625q-0.296875 0.265625 -0.296875 0.65625q0 0.375 0.25 0.59375q0.265625 0.203125 1.078125 0.375q1.203125 0.265625 1.78125 0.703125q0.59375 0.4375 0.59375 1.1875q0 0.84375 -0.6875 1.375q-0.671875 0.515625 -1.78125 0.515625q-0.71875 0 -1.296875 -0.171875q-0.578125 -0.171875 -1.015625 -0.484375l-0.015625 -1.4375l0.875 0l0.21875 0.84375q0.1875 0.1875 0.53125 0.265625q0.34375 0.078125 0.703125 0.078125q0.609375 0 0.953125 -0.25q0.359375 -0.25 0.359375 -0.65625q0 -0.375 -0.296875 -0.625q-0.28125 -0.25 -1.09375 -0.421875q-1.15625 -0.25 -1.75 -0.6875q-0.578125 -0.4375 -0.578125 -1.171875q0 -0.78125 0.65625 -1.3125q0.671875 -0.546875 1.71875 -0.546875q0.71875 0 1.296875 0.1875q0.578125 0.1875 0.953125 0.515625l0.0625 1.40625zm4.1640625 4.46875q-1.328125 0 -2.109375 -0.875q-0.78125 -0.890625 -0.78125 -2.296875l0 -0.265625q0 -1.34375 0.796875 -2.234375q0.8125 -0.90625 1.90625 -0.90625q1.28125 0 1.9375 0.78125q0.671875 0.765625 0.671875 2.046875l0 0.71875l-4.125 0l-0.015625 0.03125q0.015625 0.921875 0.453125 1.515625q0.453125 0.578125 1.265625 0.578125q0.578125 0 1.015625 -0.15625q0.453125 -0.171875 0.765625 -0.46875l0.453125 0.75q-0.328125 0.328125 -0.890625 0.5625q-0.5625 0.21875 -1.34375 0.21875zm-0.1875 -5.671875q-0.578125 0 -0.984375 0.484375q-0.40625 0.484375 -0.5 1.234375l0.015625 0.03125l2.921875 0l0 -0.15625q0 -0.6875 -0.375 -1.140625q-0.359375 -0.453125 -1.078125 -0.453125zm7.873047 5.546875q-0.046875 -0.265625 -0.078125 -0.46875q-0.03125 -0.203125 -0.046875 -0.40625q-0.328125 0.421875 -0.828125 0.71875q-0.5 0.28125 -1.078125 0.28125q-0.984375 0 -1.5 -0.484375q-0.515625 -0.484375 -0.515625 -1.359375q0 -0.90625 0.71875 -1.390625q0.734375 -0.5 2.015625 -0.5l1.1875 0l0 -0.734375q0 -0.5625 -0.359375 -0.875q-0.34375 -0.328125 -0.96875 -0.328125q-0.4375 0 -0.765625 0.109375q-0.328125 0.109375 -0.53125 0.296875l-0.125 0.671875l-0.890625 0l0 -1.234375q0.421875 -0.34375 1.03125 -0.546875q0.625 -0.203125 1.34375 -0.203125q1.078125 0 1.75 0.546875q0.671875 0.546875 0.671875 1.578125l0 3.046875q0 0.125 0 0.25q0 0.109375 0.015625 0.234375l0.46875 0.0625l0 0.734375l-1.515625 0zm-1.859375 -0.84375q0.578125 0 1.046875 -0.265625q0.484375 -0.28125 0.6875 -0.671875l0 -1.046875l-1.234375 0q-0.703125 0 -1.125 0.328125q-0.40625 0.328125 -0.40625 0.796875q0 0.421875 0.25 0.640625q0.265625 0.21875 0.78125 0.21875zm4.328125 -4.75l0 -0.75l2.0 0l0.109375 0.921875q0.265625 -0.484375 0.65625 -0.75q0.40625 -0.28125 0.90625 -0.28125q0.140625 0 0.28125 0.015625q0.140625 0.015625 0.21875 0.046875l-0.15625 1.0625l-0.65625 -0.03125q-0.453125 0 -0.765625 0.21875q-0.3125 0.21875 -0.484375 0.59375l0 3.640625l0.96875 0.171875l0 0.734375l-3.078125 0l0 -0.734375l0.96875 -0.171875l0 -4.53125l-0.96875 -0.15625zm7.7109375 4.8125q0.5625 0 1.0 -0.34375q0.4375 -0.359375 0.4375 -0.875l1.046875 0l0 0.03125q0.03125 0.8125 -0.734375 1.453125q-0.75 0.640625 -1.75 0.640625q-1.390625 0 -2.125 -0.90625q-0.71875 -0.90625 -0.71875 -2.265625l0 -0.25q0 -1.34375 0.734375 -2.25q0.734375 -0.90625 2.109375 -0.90625q0.75 0 1.359375 0.25q0.609375 0.25 1.015625 0.6875l0.046875 1.40625l-0.921875 0l-0.25 -1.0q-0.203125 -0.1875 -0.53125 -0.3125q-0.3125 -0.125 -0.71875 -0.125q-0.90625 0 -1.296875 0.65625q-0.390625 0.640625 -0.390625 1.59375l0 0.25q0 0.96875 0.375 1.625q0.390625 0.640625 1.3125 0.640625zm3.453125 0.046875l0.953125 -0.171875l0 -7.328125l-0.953125 -0.15625l0 -0.75l2.109375 0l0 3.640625q0.328125 -0.453125 0.796875 -0.703125q0.484375 -0.25 1.0625 -0.25q1.015625 0 1.578125 0.609375q0.5625 0.609375 0.5625 1.875l0 3.0625l0.96875 0.171875l0 0.734375l-3.078125 0l0 -0.734375l0.96875 -0.171875l0 -3.078125q0 -0.78125 -0.34375 -1.15625q-0.34375 -0.375 -1.0 -0.375q-0.484375 0 -0.875 0.234375q-0.390625 0.21875 -0.640625 0.59375l0 3.78125l0.953125 0.171875l0 0.734375l-3.0625 0l0 -0.734375z" fill-rule="nonzero"/><path fill="#000000" fill-opacity="0.0" d="m306.00006 113.70079l140.09448 0l0 28.59842l-140.09448 0z" fill-rule="evenodd"/><path fill="#000000" d="m318.98444 116.98875q1.671875 0 2.6875 1.03125q1.015625 1.03125 1.015625 2.65625l0 1.15625q0 1.640625 -1.015625 2.671875q-1.015625 1.015625 -2.6875 1.015625l-3.5625 0l0 -0.734375l0.953125 -0.171875l0 -6.71875l-0.953125 -0.15625l0 -0.75l0.953125 0l2.609375 0zm-1.453125 0.90625l0 6.71875l1.453125 0q1.1875 0 1.875 -0.78125q0.6875 -0.78125 0.6875 -2.0l0 -1.171875q0 -1.203125 -0.6875 -1.984375q-0.6875 -0.78125 -1.875 -0.78125l-1.453125 0zm12.330078 2.03125l-0.5625 0.078125l-2.421875 6.484375q-0.234375 0.640625 -0.6875 1.109375q-0.453125 0.48438263 -1.21875 0.48438263q-0.125 0 -0.34375 -0.03125q-0.21875 -0.03125 -0.34375 -0.06250763l0.125 -0.90625q-0.03125 -0.015625 0.203125 0q0.25 0.03125 0.3125 0.03125q0.359375 0 0.59375 -0.328125q0.234375 -0.3125 0.40625 -0.734375l0.265625 -0.65625l-2.09375 -5.375l-0.578125 -0.09375l0 -0.75l2.5625 0l0 0.75l-0.71875 0.109375l1.09375 3.140625l0.21875 0.796875l0.03125 0l1.328125 -3.9375l-0.734375 -0.109375l0 -0.75l2.5625 0l0 0.75zm0.62109375 4.859375l0.953125 -0.171875l0 -4.53125l-0.953125 -0.15625l0 -0.75l1.984375 0l0.078125 0.953125q0.3125 -0.515625 0.78125 -0.78125q0.484375 -0.28125 1.09375 -0.28125q1.03125 0 1.59375 0.609375q0.5625 0.59375 0.5625 1.84375l0 3.09375l0.953125 0.171875l0 0.734375l-3.0625 0l0 -0.734375l0.953125 -0.171875l0 -3.078125q0 -0.828125 -0.328125 -1.171875q-0.328125 -0.359375 -1.015625 -0.359375q-0.5 0 -0.890625 0.234375q-0.375 0.234375 -0.59375 0.65625l0 3.71875l0.953125 0.171875l0 0.734375l-3.0625 0l0 -0.734375zm12.019531 0.734375q-0.046875 -0.265625 -0.078125 -0.46875q-0.03125 -0.203125 -0.046875 -0.40625q-0.328125 0.421875 -0.828125 0.71875q-0.5 0.28125 -1.078125 0.28125q-0.984375 0 -1.5 -0.484375q-0.515625 -0.484375 -0.515625 -1.359375q0 -0.90625 0.71875 -1.390625q0.734375 -0.5 2.015625 -0.5l1.1875 0l0 -0.734375q0 -0.5625 -0.359375 -0.875q-0.34375 -0.328125 -0.96875 -0.328125q-0.4375 0 -0.765625 0.109375q-0.328125 0.109375 -0.53125 0.296875l-0.125 0.671875l-0.890625 0l0 -1.234375q0.421875 -0.34375 1.03125 -0.546875q0.625 -0.203125 1.34375 -0.203125q1.078125 0 1.75 0.546875q0.671875 0.546875 0.671875 1.578125l0 3.046875q0 0.125 0 0.25q0 0.109375 0.015625 0.234375l0.46875 0.0625l0 0.734375l-1.515625 0zm-1.859375 -0.84375q0.578125 0 1.046875 -0.265625q0.484375 -0.28125 0.6875 -0.671875l0 -1.046875l-1.234375 0q-0.703125 0 -1.125 0.328125q-0.40625 0.328125 -0.40625 0.796875q0 0.421875 0.25 0.640625q0.265625 0.21875 0.78125 0.21875zm4.109375 0.109375l0.953125 -0.171875l0 -4.53125l-0.953125 -0.15625l0 -0.75l1.984375 0l0.078125 0.828125q0.3125 -0.453125 0.78125 -0.6875q0.484375 -0.25 1.125 -0.25q0.625 0 1.078125 0.296875q0.453125 0.28125 0.6875 0.875q0.296875 -0.546875 0.78125 -0.859375q0.5 -0.3125 1.15625 -0.3125q0.96875 0 1.53125 0.671875q0.5625 0.65625 0.5625 1.984375l0 2.890625l0.953125 0.171875l0 0.734375l-3.0625 0l0 -0.734375l0.953125 -0.171875l0 -2.890625q0 -0.9375 -0.328125 -1.328125q-0.3125 -0.390625 -0.953125 -0.390625q-0.59375 0 -0.96875 0.421875q-0.359375 0.421875 -0.421875 1.0625l0 3.125l0.953125 0.171875l0 0.734375l-3.0625 0l0 -0.734375l0.953125 -0.171875l0 -2.890625q0 -0.890625 -0.328125 -1.296875q-0.328125 -0.421875 -0.953125 -0.421875q-0.53125 0 -0.875 0.21875q-0.34375 0.203125 -0.515625 0.609375l0 3.78125l0.953125 0.171875l0 0.734375l-3.0625 0l0 -0.734375zm11.556641 0l0.96875 -0.171875l0 -4.53125l-0.96875 -0.15625l0 -0.75l2.109375 0l0 5.4375l0.96875 0.171875l0 0.734375l-3.078125 0l0 -0.734375zm2.109375 -7.234375l-1.140625 0l0 -1.171875l1.140625 0l0 1.171875zm4.6933594 7.1875q0.5625 0 1.0 -0.34375q0.4375 -0.359375 0.4375 -0.875l1.046875 0l0 0.03125q0.03125 0.8125 -0.734375 1.453125q-0.75 0.640625 -1.75 0.640625q-1.390625 0 -2.125 -0.90625q-0.71875 -0.90625 -0.71875 -2.265625l0 -0.25q0 -1.34375 0.734375 -2.25q0.734375 -0.90625 2.109375 -0.90625q0.75 0 1.359375 0.25q0.609375 0.25 1.015625 0.6875l0.046875 1.40625l-0.921875 0l-0.25 -1.0q-0.203125 -0.1875 -0.53125 -0.3125q-0.3125 -0.125 -0.71875 -0.125q-0.90625 0 -1.296875 0.65625q-0.390625 0.640625 -0.390625 1.59375l0 0.25q0 0.96875 0.375 1.625q0.390625 0.640625 1.3125 0.640625zm10.873047 0.03125q-0.3125 0.421875 -0.765625 0.65625q-0.4375 0.21875 -1.03125 0.21875q-1.171875 0 -1.828125 -0.84375q-0.640625 -0.84375 -0.640625 -2.21875l0 -0.109375q0 -1.53125 0.640625 -2.46875q0.65625 -0.9375 1.828125 -0.9375q0.5625 0 1.0 0.203125q0.4375 0.203125 0.734375 0.59375l0 -2.578125l-0.953125 -0.15625l0 -0.75l0.953125 0l1.15625 0l0 8.234375l0.953125 0.171875l0 0.734375l-1.953125 0l-0.09375 -0.75zm-3.109375 -2.1875q0 0.96875 0.390625 1.546875q0.390625 0.578125 1.203125 0.578125q0.515625 0 0.859375 -0.234375q0.359375 -0.234375 0.59375 -0.671875l0 -2.9375q-0.21875 -0.390625 -0.578125 -0.625q-0.359375 -0.234375 -0.859375 -0.234375q-0.828125 0 -1.21875 0.6875q-0.390625 0.671875 -0.390625 1.78125l0 0.109375zm6.029297 -2.65625l0 -0.75l2.0 0l0.109375 0.921875q0.265625 -0.484375 0.65625 -0.75q0.40625 -0.28125 0.90625 -0.28125q0.140625 0 0.28125 0.015625q0.140625 0.015625 0.21875 0.046875l-0.15625 1.0625l-0.65625 -0.03125q-0.453125 0 -0.765625 0.21875q-0.3125 0.21875 -0.484375 0.59375l0 3.640625l0.96875 0.171875l0 0.734375l-3.078125 0l0 -0.734375l0.96875 -0.171875l0 -4.53125l-0.96875 -0.15625zm4.861328 2.359375q0 -1.40625 0.75 -2.3125q0.765625 -0.90625 2.078125 -0.90625q1.3125 0 2.078125 0.90625q0.765625 0.90625 0.765625 2.3125l0 0.140625q0 1.40625 -0.765625 2.3125q-0.765625 0.90625 -2.0625 0.90625q-1.328125 0 -2.09375 -0.90625q-0.75 -0.90625 -0.75 -2.3125l0 -0.140625zm1.15625 0.140625q0 1.0 0.421875 1.65625q0.421875 0.65625 1.265625 0.65625q0.8125 0 1.234375 -0.65625q0.4375 -0.65625 0.4375 -1.65625l0 -0.140625q0 -0.984375 -0.4375 -1.640625q-0.421875 -0.671875 -1.25 -0.671875q-0.828125 0 -1.25 0.671875q-0.421875 0.65625 -0.421875 1.640625l0 0.140625zm5.419922 4.78125l0.96875 -0.15625l0 -6.96875l-0.96875 -0.15625l0 -0.75l1.953125 0l0.109375 0.78125q0.3125 -0.4375 0.765625 -0.65625q0.453125 -0.234375 1.046875 -0.234375q1.1875 0 1.828125 0.9375q0.65625 0.921875 0.65625 2.46875l0 0.109375q0 1.375 -0.65625 2.21875q-0.65625 0.84375 -1.8125 0.84375q-0.578125 0 -1.03125 -0.1875q-0.4375 -0.203125 -0.75 -0.59375l0 2.1875l0.96875 0.15625l0 0.75l-3.078125 0l0 -0.75zm5.203125 -4.734375q0 -1.09375 -0.421875 -1.78125q-0.421875 -0.6875 -1.25 -0.6875q-0.5 0 -0.859375 0.21875q-0.34375 0.21875 -0.5625 0.609375l0 3.09375q0.21875 0.390625 0.5625 0.609375q0.359375 0.203125 0.875 0.203125q0.8125 0 1.234375 -0.59375q0.421875 -0.59375 0.421875 -1.5625l0 -0.109375zm6.484375 2.296875q-0.3125 0.421875 -0.765625 0.65625q-0.4375 0.21875 -1.03125 0.21875q-1.171875 0 -1.828125 -0.84375q-0.640625 -0.84375 -0.640625 -2.21875l0 -0.109375q0 -1.53125 0.640625 -2.46875q0.65625 -0.9375 1.828125 -0.9375q0.5625 0 1.0 0.203125q0.4375 0.203125 0.734375 0.59375l0 -2.578125l-0.953125 -0.15625l0 -0.75l0.953125 0l1.15625 0l0 8.234375l0.953125 0.171875l0 0.734375l-1.953125 0l-0.09375 -0.75zm-3.109375 -2.1875q0 0.96875 0.390625 1.546875q0.390625 0.578125 1.203125 0.578125q0.515625 0 0.859375 -0.234375q0.359375 -0.234375 0.59375 -0.671875l0 -2.9375q-0.21875 -0.390625 -0.578125 -0.625q-0.359375 -0.234375 -0.859375 -0.234375q-0.828125 0 -1.21875 0.6875q-0.390625 0.671875 -0.390625 1.78125l0 0.109375zm6.044922 -0.296875q0 -1.40625 0.75 -2.3125q0.765625 -0.90625 2.078125 -0.90625q1.3125 0 2.078125 0.90625q0.765625 0.90625 0.765625 2.3125l0 0.140625q0 1.40625 -0.765625 2.3125q-0.765625 0.90625 -2.0625 0.90625q-1.328125 0 -2.09375 -0.90625q-0.75 -0.90625 -0.75 -2.3125l0 -0.140625zm1.15625 0.140625q0 1.0 0.421875 1.65625q0.421875 0.65625 1.265625 0.65625q0.8125 0 1.234375 -0.65625q0.4375 -0.65625 0.4375 -1.65625l0 -0.140625q0 -0.984375 -0.4375 -1.640625q-0.421875 -0.671875 -1.25 -0.671875q-0.828125 0 -1.25 0.671875q-0.421875 0.65625 -0.421875 1.640625l0 0.140625zm7.810547 -2.5l-0.71875 0.125l0.828125 3.15625l0.125 0.765625l0.046875 0l0.15625 -0.765625l1.265625 -4.03125l0.921875 0l1.28125 4.03125l0.171875 0.859375l0.046875 0l0.171875 -0.859375l0.765625 -3.15625l-0.734375 -0.125l0 -0.75l2.421875 0l0 0.75l-0.5625 0.078125l-1.59375 5.515625l-0.9375 0l-1.21875 -3.859375l-0.265625 -1.0625l-0.03125 0l-0.25 1.0625l-1.203125 3.859375l-0.9375 0l-1.59375 -5.515625l-0.5625 -0.078125l0 -0.75l2.40625 0l0 0.75zm7.513672 4.859375l0.953125 -0.171875l0 -4.53125l-0.953125 -0.15625l0 -0.75l1.984375 0l0.078125 0.953125q0.3125 -0.515625 0.78125 -0.78125q0.484375 -0.28125 1.09375 -0.28125q1.03125 0 1.59375 0.609375q0.5625 0.59375 0.5625 1.84375l0 3.09375l0.953125 0.171875l0 0.734375l-3.0625 0l0 -0.734375l0.953125 -0.171875l0 -3.078125q0 -0.828125 -0.328125 -1.171875q-0.328125 -0.359375 -1.015625 -0.359375q-0.5 0 -0.890625 0.234375q-0.375 0.234375 -0.59375 0.65625l0 3.71875l0.953125 0.171875l0 0.734375l-3.0625 0l0 -0.734375z" fill-rule="nonzero"/><path fill="#000000" d="m317.7657 133.92625l-0.71875 0.125l0.828125 3.15625l0.125 0.765625l0.046875 0l0.15625 -0.765625l1.265625 -4.03125l0.921875 0l1.28125 4.03125l0.171875 0.859375l0.046875 0l0.171875 -0.859375l0.765625 -3.15625l-0.734375 -0.125l0 -0.75l2.421875 0l0 0.75l-0.5625 0.078125l-1.59375 5.515625l-0.9375 0l-1.21875 -3.859375l-0.265625 -1.0625l-0.03125 0l-0.25 1.0625l-1.203125 3.859375l-0.9375 0l-1.59375 -5.515625l-0.5625 -0.078125l0 -0.75l2.40625 0l0 0.75zm7.669922 4.859375l0.96875 -0.171875l0 -4.53125l-0.96875 -0.15625l0 -0.75l2.109375 0l0 5.4375l0.96875 0.171875l0 0.734375l-3.078125 0l0 -0.734375zm2.109375 -7.234375l-1.140625 0l0 -1.171875l1.140625 0l0 1.171875zm3.8496094 0.09375l0 1.53125l1.203125 0l0 0.859375l-1.203125 0l0 3.84375q0 0.453125 0.1875 0.640625q0.1875 0.171875 0.5 0.171875q0.140625 0 0.328125 -0.015625q0.203125 -0.03125 0.328125 -0.0625l0.15625 0.78125q-0.15625 0.109375 -0.484375 0.171875q-0.3125 0.078125 -0.625 0.078125q-0.703125 0 -1.125 -0.421875q-0.40625 -0.4375 -0.40625 -1.34375l0 -3.84375l-1.015625 0l0 -0.859375l1.015625 0l0 -1.53125l1.140625 0zm2.2226562 7.140625l0.953125 -0.171875l0 -7.328125l-0.953125 -0.15625l0 -0.75l2.109375 0l0 3.640625q0.328125 -0.453125 0.796875 -0.703125q0.484375 -0.25 1.0625 -0.25q1.015625 0 1.578125 0.609375q0.5625 0.609375 0.5625 1.875l0 3.0625l0.96875 0.171875l0 0.734375l-3.078125 0l0 -0.734375l0.96875 -0.171875l0 -3.078125q0 -0.78125 -0.34375 -1.15625q-0.34375 -0.375 -1.0 -0.375q-0.484375 0 -0.875 0.234375q-0.390625 0.21875 -0.640625 0.59375l0 3.78125l0.953125 0.171875l0 0.734375l-3.0625 0l0 -0.734375zm15.744141 -3.609375l-0.875 0l-0.1875 -0.765625q-0.203125 -0.203125 -0.53125 -0.3125q-0.3125 -0.125 -0.71875 -0.125q-0.609375 0 -0.90625 0.265625q-0.296875 0.265625 -0.296875 0.65625q0 0.375 0.25 0.59375q0.265625 0.203125 1.078125 0.375q1.203125 0.265625 1.78125 0.703125q0.59375 0.4375 0.59375 1.1875q0 0.84375 -0.6875 1.375q-0.671875 0.515625 -1.78125 0.515625q-0.71875 0 -1.296875 -0.171875q-0.578125 -0.171875 -1.015625 -0.484375l-0.015625 -1.4375l0.875 0l0.21875 0.84375q0.1875 0.1875 0.53125 0.265625q0.34375 0.078125 0.703125 0.078125q0.609375 0 0.953125 -0.25q0.359375 -0.25 0.359375 -0.65625q0 -0.375 -0.296875 -0.625q-0.28125 -0.25 -1.09375 -0.421875q-1.15625 -0.25 -1.75 -0.6875q-0.578125 -0.4375 -0.578125 -1.171875q0 -0.78125 0.65625 -1.3125q0.671875 -0.546875 1.71875 -0.546875q0.71875 0 1.296875 0.1875q0.578125 0.1875 0.953125 0.515625l0.0625 1.40625zm4.1640625 4.46875q-1.328125 0 -2.109375 -0.875q-0.78125 -0.890625 -0.78125 -2.296875l0 -0.265625q0 -1.34375 0.796875 -2.234375q0.8125 -0.90625 1.90625 -0.90625q1.28125 0 1.9375 0.78125q0.671875 0.765625 0.671875 2.046875l0 0.71875l-4.125 0l-0.015625 0.03125q0.015625 0.921875 0.453125 1.515625q0.453125 0.578125 1.265625 0.578125q0.578125 0 1.015625 -0.15625q0.453125 -0.171875 0.765625 -0.46875l0.453125 0.75q-0.328125 0.328125 -0.890625 0.5625q-0.5625 0.21875 -1.34375 0.21875zm-0.1875 -5.671875q-0.578125 0 -0.984375 0.484375q-0.40625 0.484375 -0.5 1.234375l0.015625 0.03125l2.921875 0l0 -0.15625q0 -0.6875 -0.375 -1.140625q-0.359375 -0.453125 -1.078125 -0.453125zm7.873047 5.546875q-0.046875 -0.265625 -0.078125 -0.46875q-0.03125 -0.203125 -0.046875 -0.40625q-0.328125 0.421875 -0.828125 0.71875q-0.5 0.28125 -1.078125 0.28125q-0.984375 0 -1.5 -0.484375q-0.515625 -0.484375 -0.515625 -1.359375q0 -0.90625 0.71875 -1.390625q0.734375 -0.5 2.015625 -0.5l1.1875 0l0 -0.734375q0 -0.5625 -0.359375 -0.875q-0.34375 -0.328125 -0.96875 -0.328125q-0.4375 0 -0.765625 0.109375q-0.328125 0.109375 -0.53125 0.296875l-0.125 0.671875l-0.890625 0l0 -1.234375q0.421875 -0.34375 1.03125 -0.546875q0.625 -0.203125 1.34375 -0.203125q1.078125 0 1.75 0.546875q0.671875 0.546875 0.671875 1.578125l0 3.046875q0 0.125 0 0.25q0 0.109375 0.015625 0.234375l0.46875 0.0625l0 0.734375l-1.515625 0zm-1.859375 -0.84375q0.578125 0 1.046875 -0.265625q0.484375 -0.28125 0.6875 -0.671875l0 -1.046875l-1.234375 0q-0.703125 0 -1.125 0.328125q-0.40625 0.328125 -0.40625 0.796875q0 0.421875 0.25 0.640625q0.265625 0.21875 0.78125 0.21875zm4.328125 -4.75l0 -0.75l2.0 0l0.109375 0.921875q0.265625 -0.484375 0.65625 -0.75q0.40625 -0.28125 0.90625 -0.28125q0.140625 0 0.28125 0.015625q0.140625 0.015625 0.21875 0.046875l-0.15625 1.0625l-0.65625 -0.03125q-0.453125 0 -0.765625 0.21875q-0.3125 0.21875 -0.484375 0.59375l0 3.640625l0.96875 0.171875l0 0.734375l-3.078125 0l0 -0.734375l0.96875 -0.171875l0 -4.53125l-0.96875 -0.15625zm7.7109375 4.8125q0.5625 0 1.0 -0.34375q0.4375 -0.359375 0.4375 -0.875l1.046875 0l0 0.03125q0.03125 0.8125 -0.734375 1.453125q-0.75 0.640625 -1.75 0.640625q-1.390625 0 -2.125 -0.90625q-0.71875 -0.90625 -0.71875 -2.265625l0 -0.25q0 -1.34375 0.734375 -2.25q0.734375 -0.90625 2.109375 -0.90625q0.75 0 1.359375 0.25q0.609375 0.25 1.015625 0.6875l0.046875 1.40625l-0.921875 0l-0.25 -1.0q-0.203125 -0.1875 -0.53125 -0.3125q-0.3125 -0.125 -0.71875 -0.125q-0.90625 0 -1.296875 0.65625q-0.390625 0.640625 -0.390625 1.59375l0 0.25q0 0.96875 0.375 1.625q0.390625 0.640625 1.3125 0.640625zm3.453125 0.046875l0.953125 -0.171875l0 -7.328125l-0.953125 -0.15625l0 -0.75l2.109375 0l0 3.640625q0.328125 -0.453125 0.796875 -0.703125q0.484375 -0.25 1.0625 -0.25q1.015625 0 1.578125 0.609375q0.5625 0.609375 0.5625 1.875l0 3.0625l0.96875 0.171875l0 0.734375l-3.078125 0l0 -0.734375l0.96875 -0.171875l0 -3.078125q0 -0.78125 -0.34375 -1.15625q-0.34375 -0.375 -1.0 -0.375q-0.484375 0 -0.875 0.234375q-0.390625 0.21875 -0.640625 0.59375l0 3.78125l0.953125 0.171875l0 0.734375l-3.0625 0l0 -0.734375z" fill-rule="nonzero"/></g></svg>